<?xml version="1.0" encoding="UTF-8" ?>
<!DOCTYPE svg PUBLIC "-//W3C//DTD SVG 1.1//EN" "http://www.w3.org/Graphics/SVG/1.1/DTD/svg11.dtd">
<svg width="589pt" height="155pt" viewBox="0 0 589 155" version="1.1" xmlns="http://www.w3.org/2000/svg">
<g id="#36408cfe">
<path fill="#36408c" opacity="1.00" d=" M 24.75 19.47 C 28.92 12.53 37.27 9.75 44.98 9.52 C 57.31 9.39 69.64 9.45 81.98 9.45 C 86.40 9.25 90.74 10.14 95.09 10.72 C 105.66 13.53 116.17 19.41 121.28 29.48 C 126.03 37.49 126.07 47.06 125.51 56.07 C 124.13 68.28 116.50 79.58 105.66 85.37 C 96.39 90.64 85.42 91.42 74.98 91.19 C 68.64 90.61 62.24 91.88 55.93 90.86 C 51.86 90.49 48.26 86.24 49.09 82.11 C 49.41 78.15 52.95 74.76 56.91 74.62 C 65.99 74.46 75.08 74.86 84.14 74.31 C 91.41 73.39 98.93 70.25 103.00 63.85 C 107.37 57.91 107.37 50.08 106.31 43.10 C 104.09 33.05 93.93 26.41 83.98 26.34 C 72.66 26.13 61.33 26.23 50.00 26.26 C 43.47 26.00 39.46 33.14 40.52 39.03 C 40.49 68.71 40.59 98.39 40.49 128.06 C 40.54 131.68 37.76 135.14 34.12 135.57 C 30.60 135.80 26.31 136.22 23.83 133.14 C 21.77 131.36 21.13 128.64 21.24 126.03 C 21.21 100.69 21.23 75.34 21.19 50.00 C 21.59 39.85 19.09 28.64 24.75 19.47 Z" />
<path fill="#36408c" opacity="1.00" d=" M 168.11 45.15 C 171.99 44.10 175.97 43.35 180.01 43.48 C 185.66 43.65 191.96 42.57 196.90 46.02 C 198.92 48.22 200.07 51.39 199.26 54.35 C 197.83 57.60 194.81 60.80 190.94 60.32 C 183.73 59.33 175.74 58.91 169.33 62.97 C 163.09 66.62 159.35 73.85 159.52 81.02 C 159.47 93.34 159.53 105.67 159.51 118.00 C 159.46 122.36 159.88 126.78 158.96 131.10 C 158.10 113.85 159.23 96.58 158.62 79.33 L 158.38 79.33 C 158.17 90.88 158.07 102.46 158.45 114.01 C 158.62 120.05 157.72 126.10 158.54 132.12 C 155.41 136.02 150.17 136.31 145.64 135.21 C 142.00 133.85 140.23 129.71 140.41 126.03 C 140.31 112.37 140.38 98.71 140.37 85.06 C 140.39 80.68 140.35 76.23 141.53 71.98 C 144.26 58.90 155.20 48.22 168.11 45.15 Z" />
<path fill="#36408c" opacity="1.00" d=" M 326.59 60.43 C 333.95 49.14 347.77 43.18 361.00 43.44 C 371.29 43.12 382.03 46.26 389.61 53.42 C 390.88 54.46 392.12 55.78 393.85 55.95 C 399.20 51.25 405.08 46.96 412.04 45.01 C 424.00 42.13 437.18 42.89 448.20 48.64 C 451.45 50.24 454.06 52.82 456.60 55.35 C 463.72 62.15 466.97 72.30 466.65 81.99 C 466.58 97.32 466.71 112.65 466.58 127.98 C 467.01 131.99 463.41 135.34 459.60 135.66 C 456.27 135.97 452.15 135.94 450.00 132.92 C 447.71 130.18 448.32 126.35 448.18 123.04 C 448.48 112.05 447.20 101.06 448.07 90.08 C 448.42 86.38 447.87 82.70 447.69 79.01 C 447.64 72.41 443.62 66.16 438.02 62.81 C 435.28 61.09 432.05 60.57 428.98 59.77 C 421.80 59.02 413.84 60.31 408.50 65.52 C 404.17 69.38 402.91 75.44 402.60 80.99 C 402.50 97.00 402.71 113.03 402.52 129.04 C 402.57 131.83 400.38 133.77 398.37 135.34 C 393.66 135.76 387.29 136.67 385.01 131.28 C 383.19 124.06 383.90 116.41 384.01 109.01 C 383.44 99.02 384.09 89.02 383.69 79.03 C 383.50 71.89 379.13 65.07 372.67 61.99 C 366.82 59.21 360.13 59.40 353.82 59.46 C 355.22 59.69 356.64 59.86 358.06 59.98 C 349.54 60.40 341.88 66.78 340.15 75.16 C 339.56 77.82 339.43 80.54 339.42 83.26 C 338.05 99.09 339.36 115.09 338.71 130.97 C 338.65 133.36 336.08 134.72 334.06 135.32 C 330.73 135.72 326.75 136.34 323.97 133.97 C 321.37 131.84 320.55 128.31 320.61 125.09 C 320.52 110.71 320.53 96.32 320.56 81.94 C 320.87 74.46 322.16 66.67 326.59 60.43 Z" />
<path fill="#36408c" opacity="1.00" d=" M 521.01 44.09 C 527.21 43.00 533.76 43.03 539.96 44.11 C 557.74 45.88 573.75 58.97 578.98 76.06 C 581.28 85.19 581.15 94.83 578.96 103.96 C 578.60 104.96 578.24 105.96 577.89 106.95 C 573.96 118.06 565.24 127.27 554.62 132.27 C 545.19 136.96 534.40 138.02 524.01 137.20 C 514.76 135.67 505.57 132.71 498.02 127.00 C 491.86 121.78 486.24 115.48 483.65 107.69 C 479.39 95.32 479.66 81.17 485.31 69.29 C 489.87 59.59 498.15 52.18 507.77 47.68 C 509.20 47.17 510.61 46.62 512.04 46.06 C 514.95 45.10 517.95 44.42 521.01 44.09 M 508.32 68.25 C 500.19 76.47 498.93 89.24 501.44 100.02 C 503.41 108.98 510.68 115.86 519.15 118.83 C 520.75 119.28 522.35 119.74 523.94 120.27 C 529.96 120.77 536.16 121.04 541.99 119.18 C 548.44 116.86 554.41 112.67 557.83 106.61 C 564.31 94.73 563.05 78.47 553.45 68.57 C 541.45 57.18 520.18 56.16 508.32 68.25 Z" />
<path fill="#36408c" opacity="1.00" d=" M 214.70 51.89 C 214.39 48.52 217.06 45.69 220.03 44.57 C 222.80 44.13 225.62 44.44 228.41 44.54 C 229.70 45.51 231.18 46.29 232.17 47.61 C 234.12 51.07 233.29 55.19 233.46 58.98 C 233.55 73.35 233.14 87.74 233.73 102.10 C 235.07 106.16 236.23 110.53 239.42 113.60 C 244.98 119.22 253.33 120.99 260.99 120.61 C 267.45 120.76 274.17 118.21 278.42 113.25 C 281.57 109.23 283.73 104.21 283.59 99.03 C 283.59 83.55 283.49 68.07 283.64 52.60 C 283.39 49.10 285.74 45.68 289.04 44.59 C 292.55 44.19 296.79 43.79 299.57 46.46 C 301.97 48.56 302.44 51.99 302.45 55.01 C 302.50 69.66 302.42 84.32 302.49 98.97 C 302.34 107.16 300.20 115.62 294.85 122.02 C 286.58 132.43 273.00 137.51 259.94 137.41 C 248.05 137.59 235.72 134.33 226.55 126.48 C 218.31 119.16 214.46 107.84 214.62 97.00 C 214.62 81.96 214.49 66.93 214.70 51.89 Z" />
</g>
</svg>
