<?xml version="1.0" encoding="UTF-8" ?>
<!DOCTYPE svg PUBLIC "-//W3C//DTD SVG 1.1//EN" "http://www.w3.org/Graphics/SVG/1.1/DTD/svg11.dtd">
<svg width="638pt" height="662pt" viewBox="0 0 638 662" version="1.1" xmlns="http://www.w3.org/2000/svg">
<g id="#b58bfdfe">
<path fill="#b58bfd" opacity="1.00" d=" M 230.73 66.77 C 248.17 54.01 269.40 46.10 291.08 45.58 C 310.84 45.26 331.00 51.09 346.47 63.64 C 356.04 71.68 364.22 81.76 368.90 93.41 C 369.38 96.27 370.12 99.08 371.14 101.79 C 370.69 101.46 369.80 100.81 369.35 100.48 C 368.33 102.48 367.48 105.53 364.76 105.61 C 361.87 105.89 360.47 108.97 359.20 111.22 C 359.44 113.76 360.54 116.18 360.36 118.79 C 360.18 122.86 361.68 126.92 360.60 130.95 C 359.12 138.17 358.24 145.85 354.38 152.27 C 354.52 150.34 354.72 148.42 355.01 146.51 C 359.49 133.71 359.41 119.60 355.36 106.70 C 354.10 103.15 353.41 99.20 351.02 96.19 C 349.30 102.58 345.78 108.38 341.65 113.50 C 332.26 123.86 319.65 130.62 306.84 135.81 C 281.03 145.26 254.32 153.55 231.37 169.13 C 202.32 187.41 179.66 217.59 174.77 252.04 C 170.88 276.81 177.44 302.35 190.07 323.75 C 196.55 334.74 204.57 344.72 213.15 354.12 C 210.22 353.70 207.25 353.51 204.30 353.88 C 204.67 354.81 205.07 355.73 205.45 356.67 C 203.94 356.93 202.45 357.20 200.95 357.47 C 202.31 357.92 203.69 358.36 205.06 358.82 C 204.50 359.16 203.93 359.51 203.38 359.86 C 203.44 360.60 203.56 361.34 203.64 362.09 C 200.21 362.83 200.17 366.63 201.46 369.22 C 199.64 368.66 197.84 368.07 196.06 367.43 C 196.16 368.48 196.29 369.55 196.40 370.61 C 195.67 370.91 194.96 371.21 194.24 371.51 C 195.20 372.07 196.17 372.62 197.13 373.18 C 194.65 373.56 192.24 374.31 189.95 375.33 C 189.66 374.61 189.38 373.91 189.09 373.21 C 188.68 373.43 187.87 373.87 187.47 374.09 C 186.54 373.92 185.61 373.76 184.68 373.59 C 184.29 374.86 182.99 376.49 184.34 377.63 C 186.25 379.81 188.38 381.79 190.17 384.09 C 188.34 383.16 186.52 382.19 184.82 381.05 C 167.60 364.15 152.17 344.85 142.58 322.53 C 133.42 302.47 129.81 279.99 131.57 258.05 C 134.75 224.72 151.36 193.94 173.71 169.52 C 174.85 160.17 175.93 150.64 178.66 141.55 C 187.27 111.83 205.98 85.27 230.73 66.77 Z" />
</g>
<g id="#a687fcfd">
<path fill="#a687fc" opacity="1.00" d=" M 368.90 93.41 C 375.18 106.99 377.32 122.62 374.36 137.34 C 372.01 150.02 365.36 162.10 355.10 170.06 C 350.14 173.44 344.86 176.37 340.15 180.09 C 334.80 184.44 336.78 192.02 336.60 198.00 C 337.14 204.17 334.80 211.20 328.80 213.90 C 325.04 216.03 320.38 213.44 316.71 215.59 C 316.02 219.75 313.87 224.36 309.45 225.54 C 304.98 226.54 303.28 231.39 299.27 233.17 C 295.54 234.92 293.04 238.21 290.74 241.50 C 285.30 248.61 274.42 248.60 267.41 243.88 C 273.78 245.55 281.49 248.08 287.15 243.25 C 285.03 243.65 282.92 244.13 280.80 244.51 C 281.57 243.09 283.01 242.37 284.36 241.61 C 281.54 239.89 280.28 243.03 278.86 244.83 C 277.26 244.99 275.65 244.89 274.05 244.86 C 274.88 243.98 275.74 243.10 276.58 242.23 C 275.77 241.54 274.96 240.85 274.16 240.17 C 278.13 239.83 283.94 241.31 286.29 237.13 C 281.88 238.53 275.78 241.12 272.52 236.31 C 275.08 237.72 277.97 238.84 280.93 237.98 C 285.07 236.48 287.87 232.90 290.90 229.89 C 293.52 227.09 297.24 225.67 299.88 222.89 C 301.36 221.42 302.60 219.59 304.51 218.64 C 306.17 218.27 308.12 218.66 309.42 217.31 C 311.54 215.68 310.70 212.40 312.74 210.66 C 315.24 206.89 320.21 208.58 323.96 208.15 C 326.49 207.20 328.33 204.65 328.45 201.95 C 329.23 193.37 326.16 184.06 330.15 175.97 C 333.58 170.17 339.97 167.19 344.80 162.76 C 349.10 157.98 352.64 152.51 355.01 146.51 C 354.72 148.42 354.52 150.34 354.38 152.27 C 358.24 145.85 359.12 138.17 360.60 130.95 C 361.68 126.92 360.18 122.86 360.36 118.79 C 360.54 116.18 359.44 113.76 359.20 111.22 C 360.47 108.97 361.87 105.89 364.76 105.61 C 367.48 105.53 368.33 102.48 369.35 100.48 C 369.80 100.81 370.69 101.46 371.14 101.79 C 370.12 99.08 369.38 96.27 368.90 93.41 Z" />
</g>
<g id="#8c81fbfd">
<path fill="#8c81fb" opacity="1.00" d=" M 414.97 155.95 C 416.88 152.94 420.99 153.60 423.98 154.11 C 435.16 156.32 445.87 160.65 455.80 166.18 C 456.55 167.16 457.27 168.17 457.99 169.19 C 453.89 167.82 450.27 165.38 446.27 163.80 C 445.18 163.43 443.49 162.93 442.75 164.15 C 441.10 166.74 441.77 169.94 441.89 172.82 C 441.19 172.83 439.81 172.84 439.11 172.85 C 434.17 170.38 429.27 167.70 423.98 166.00 C 421.25 165.12 418.49 164.34 415.87 163.15 C 414.67 161.04 413.23 158.17 414.97 155.95 Z" />
</g>
<g id="#ac87fafc">
<path fill="#ac87fa" opacity="1.00" d=" M 300.23 161.26 C 300.75 161.24 301.78 161.19 302.30 161.17 C 304.14 164.89 306.83 168.59 310.83 170.16 C 313.88 171.72 317.38 171.65 320.66 172.39 C 321.33 173.62 321.67 174.95 321.69 176.36 C 316.46 179.22 309.80 178.05 304.88 175.06 C 300.98 171.87 296.16 166.18 300.23 161.26 Z" />
</g>
<g id="#817ffcfe">
<path fill="#817ffc" opacity="1.00" d=" M 442.75 164.15 C 443.49 162.93 445.18 163.43 446.27 163.80 C 450.27 165.38 453.89 167.82 457.99 169.19 C 457.27 168.17 456.55 167.16 455.80 166.18 C 466.51 171.97 476.35 179.38 485.03 187.89 C 486.14 189.53 487.10 191.26 488.04 193.00 C 484.21 190.30 480.97 186.88 477.17 184.15 C 475.89 185.44 474.30 186.79 475.04 188.80 C 474.64 188.95 473.85 189.27 473.45 189.42 C 474.10 190.03 474.76 190.63 475.43 191.24 C 473.69 193.01 471.96 195.11 471.58 197.63 C 472.68 202.51 476.27 206.35 478.23 210.90 C 477.17 210.24 476.12 209.59 475.11 208.88 C 469.38 198.99 462.01 190.03 453.11 182.84 C 448.83 178.98 443.76 176.20 439.11 172.85 C 439.81 172.84 441.19 172.83 441.89 172.82 C 441.77 169.94 441.10 166.74 442.75 164.15 Z" />
</g>
<g id="#7280fbfe">
<path fill="#7280fb" opacity="1.00" d=" M 477.17 184.15 C 480.97 186.88 484.21 190.30 488.04 193.00 C 487.10 191.26 486.14 189.53 485.03 187.89 C 496.05 198.64 505.11 211.51 511.13 225.69 C 513.36 231.74 515.13 237.93 516.77 244.16 C 514.13 243.77 513.87 241.11 513.23 239.06 C 512.89 241.31 512.89 243.70 511.86 245.79 C 510.26 247.14 508.15 247.69 506.27 248.55 C 507.04 250.12 507.81 251.68 508.60 253.25 C 508.09 253.07 507.07 252.71 506.56 252.53 C 505.65 250.81 505.09 248.65 503.14 247.81 C 503.55 249.13 504.02 250.45 504.49 251.75 C 501.30 252.23 497.64 254.54 494.68 252.26 C 495.33 255.21 491.97 254.86 490.48 256.32 C 489.69 261.29 491.33 266.59 489.29 271.34 C 488.58 264.55 489.35 257.73 488.98 250.93 C 488.93 249.37 488.16 247.98 487.65 246.55 C 485.74 233.37 481.57 220.55 475.11 208.88 C 476.12 209.59 477.17 210.24 478.23 210.90 C 476.27 206.35 472.68 202.51 471.58 197.63 C 471.96 195.11 473.69 193.01 475.43 191.24 C 474.76 190.63 474.10 190.03 473.45 189.42 C 473.85 189.27 474.64 188.95 475.04 188.80 C 474.30 186.79 475.89 185.44 477.17 184.15 Z" />
</g>
<g id="#8a82fcfe">
<path fill="#8a82fc" opacity="1.00" d=" M 353.96 214.41 C 374.76 202.16 404.54 207.88 418.82 227.49 C 416.09 227.34 412.80 224.06 410.55 226.51 C 409.76 229.38 410.11 232.45 409.77 235.40 C 409.18 235.64 408.00 236.14 407.41 236.39 C 408.11 236.81 408.82 237.23 409.53 237.65 C 409.83 240.04 409.97 242.44 410.04 244.85 C 409.59 244.60 408.70 244.12 408.26 243.88 C 404.73 234.96 397.27 227.66 388.15 224.60 C 377.46 220.52 365.38 222.30 355.19 226.89 C 352.54 227.01 349.97 227.63 347.49 228.53 C 346.88 227.07 346.28 225.63 345.67 224.19 C 347.35 222.08 349.51 220.39 352.30 220.21 C 352.94 218.18 354.55 216.73 355.98 215.23 C 355.48 215.03 354.46 214.62 353.96 214.41 Z" />
</g>
<g id="#9583fbfd">
<path fill="#9583fb" opacity="1.00" d=" M 348.81 217.87 C 350.40 216.54 352.13 215.40 353.96 214.41 C 354.46 214.62 355.48 215.03 355.98 215.23 C 354.55 216.73 352.94 218.18 352.30 220.21 C 349.51 220.39 347.35 222.08 345.67 224.19 C 346.28 225.63 346.88 227.07 347.49 228.53 C 349.97 227.63 352.54 227.01 355.19 226.89 C 352.37 229.52 348.77 231.29 346.25 234.30 C 342.30 238.36 339.90 243.60 337.98 248.85 C 336.57 253.50 336.78 258.50 335.09 263.12 C 332.97 266.01 328.24 266.17 327.19 270.01 C 323.06 282.22 333.47 296.01 346.14 296.38 C 351.63 297.38 359.75 298.80 360.59 305.52 C 351.00 305.25 341.63 302.18 331.98 302.75 C 319.15 303.07 306.07 305.38 294.67 311.53 C 290.91 313.38 287.73 316.16 284.18 318.35 C 282.50 318.56 280.82 318.71 279.13 318.80 C 279.78 315.87 281.36 313.30 282.95 310.80 C 288.31 304.76 295.47 300.53 303.26 298.48 C 310.72 295.54 318.91 296.14 326.60 294.44 C 324.83 291.86 322.85 289.31 321.90 286.28 C 320.41 279.96 320.18 273.37 321.98 267.08 C 323.10 263.24 327.02 261.38 329.65 258.72 C 331.03 256.43 330.41 253.54 330.45 250.99 C 331.25 237.85 339.07 226.25 348.81 217.87 Z" />
</g>
<g id="#b087fcfd">
<path fill="#b087fc" opacity="1.00" d=" M 230.48 222.39 C 235.97 217.71 244.23 215.21 250.91 218.86 C 258.76 223.85 264.72 231.24 272.52 236.31 C 275.78 241.12 281.88 238.53 286.29 237.13 C 283.94 241.31 278.13 239.83 274.16 240.17 C 274.96 240.85 275.77 241.54 276.58 242.23 C 275.74 243.10 274.88 243.98 274.05 244.86 C 275.65 244.89 277.26 244.99 278.86 244.83 C 280.28 243.03 281.54 239.89 284.36 241.61 C 283.01 242.37 281.57 243.09 280.80 244.51 C 282.92 244.13 285.03 243.65 287.15 243.25 C 281.49 248.08 273.78 245.55 267.41 243.88 C 259.96 240.26 255.40 231.96 247.12 229.89 C 242.04 229.55 238.62 234.23 235.93 237.88 C 229.89 247.28 228.23 258.93 228.74 269.91 C 229.72 281.61 233.04 293.35 239.79 303.08 C 244.01 309.61 249.57 315.03 255.39 320.10 C 250.75 319.60 247.41 316.35 244.29 313.20 C 242.47 315.86 241.47 318.94 241.11 322.13 C 240.86 321.62 240.37 320.60 240.12 320.09 C 238.76 320.49 237.39 320.90 236.03 321.31 C 237.31 322.44 238.61 323.56 239.92 324.67 C 238.60 324.52 237.28 324.39 235.96 324.26 C 236.56 324.92 237.16 325.57 237.76 326.24 C 238.96 326.32 240.17 326.40 241.37 326.49 C 241.77 328.94 242.24 331.39 243.07 333.74 C 233.15 325.77 224.64 315.83 218.90 304.44 C 216.64 297.89 213.91 291.52 212.05 284.83 C 206.38 262.76 213.32 237.62 230.48 222.39 Z" />
</g>
<g id="#7880fbfe">
<path fill="#7880fb" opacity="1.00" d=" M 410.55 226.51 C 412.80 224.06 416.09 227.34 418.82 227.49 C 423.79 232.89 427.06 239.86 429.06 246.91 C 434.01 264.92 430.09 284.61 420.52 300.42 C 403.44 327.32 375.05 346.27 344.16 353.47 C 339.54 352.39 334.91 353.34 330.28 353.67 C 328.88 352.04 328.95 349.48 328.76 347.39 C 329.60 345.40 332.36 346.99 334.02 346.72 C 333.28 344.83 332.39 343.01 331.28 341.32 C 332.70 341.31 334.18 341.52 335.57 341.07 C 338.07 340.05 337.76 336.17 340.59 335.57 C 344.43 334.19 348.46 333.33 352.11 331.45 C 351.32 331.37 349.74 331.21 348.95 331.13 C 349.84 330.13 351.27 330.01 352.45 329.51 C 367.12 324.10 380.62 315.66 391.89 304.82 C 399.40 296.54 406.54 287.39 409.53 276.41 C 412.42 265.78 412.27 254.21 408.26 243.88 C 408.70 244.12 409.59 244.60 410.04 244.85 C 409.97 242.44 409.83 240.04 409.53 237.65 C 408.82 237.23 408.11 236.81 407.41 236.39 C 408.00 236.14 409.18 235.64 409.77 235.40 C 410.11 232.45 409.76 229.38 410.55 226.51 Z" />
</g>
<g id="#3b4a9bc0">
<path fill="#3b4a9b" opacity="0.75" d=" M 511.13 225.69 C 517.68 239.47 520.22 254.87 520.57 270.03 C 520.32 279.18 519.83 288.42 517.41 297.29 C 518.01 290.50 519.43 283.80 519.68 276.98 C 520.19 266.00 519.49 254.84 516.77 244.16 C 515.13 237.93 513.36 231.74 511.13 225.69 Z" />
</g>
<g id="#5b81fbfe">
<path fill="#5b81fb" opacity="1.00" d=" M 513.23 239.06 C 513.87 241.11 514.13 243.77 516.77 244.16 C 519.49 254.84 520.19 266.00 519.68 276.98 C 519.43 283.80 518.01 290.50 517.41 297.29 C 517.30 297.66 517.07 298.41 516.96 298.79 C 515.28 303.52 514.10 308.42 513.06 313.33 C 502.38 346.07 479.95 373.69 454.10 395.87 C 451.57 395.18 449.14 396.83 446.63 396.15 C 444.60 395.60 442.58 396.27 440.59 396.64 C 440.52 394.94 440.46 393.25 440.40 391.56 C 439.12 390.99 437.83 390.43 436.55 389.87 C 438.77 386.50 436.24 383.33 434.08 380.76 C 436.21 380.55 438.47 380.30 439.88 378.48 C 438.43 376.52 436.82 374.45 434.17 374.34 C 435.20 373.46 436.24 372.59 437.27 371.69 C 438.29 371.94 439.31 372.20 440.35 372.43 C 439.65 371.37 438.81 370.42 437.90 369.55 C 438.30 368.25 438.71 366.95 439.14 365.66 C 438.05 365.57 436.96 365.49 435.88 365.42 C 437.46 363.38 439.05 361.34 440.19 359.01 C 443.45 354.75 447.87 351.45 450.99 347.02 C 470.97 324.16 486.07 295.72 488.17 265.00 C 488.24 258.85 488.47 252.67 487.65 246.55 C 488.16 247.98 488.93 249.37 488.98 250.93 C 489.35 257.73 488.58 264.55 489.29 271.34 C 491.33 266.59 489.69 261.29 490.48 256.32 C 491.97 254.86 495.33 255.21 494.68 252.26 C 497.64 254.54 501.30 252.23 504.49 251.75 C 504.02 250.45 503.55 249.13 503.14 247.81 C 505.09 248.65 505.65 250.81 506.56 252.53 C 507.07 252.71 508.09 253.07 508.60 253.25 C 507.81 251.68 507.04 250.12 506.27 248.55 C 508.15 247.69 510.26 247.14 511.86 245.79 C 512.89 243.70 512.89 241.31 513.23 239.06 Z" />
</g>
<g id="#4c438ebb">
<path fill="#4c438e" opacity="0.73" d=" M 335.09 263.12 C 336.78 258.50 336.57 253.50 337.98 248.85 C 338.06 253.68 337.58 258.87 335.09 263.12 Z" />
</g>
<g id="#54499ecd">
<path fill="#54499e" opacity="0.80" d=" M 321.90 286.28 C 319.10 280.38 318.95 272.93 321.98 267.08 C 320.18 273.37 320.41 279.96 321.90 286.28 Z" />
</g>
<g id="#7559b5d7">
<path fill="#7559b5" opacity="0.84" d=" M 212.05 284.83 C 213.91 291.52 216.64 297.89 218.90 304.44 C 215.52 298.41 212.95 291.70 212.05 284.83 Z" />
</g>
<g id="#374ca2d2">
<path fill="#374ca2" opacity="0.82" d=" M 513.06 313.33 C 514.10 308.42 515.28 303.52 516.96 298.79 C 516.49 303.77 515.10 308.75 513.06 313.33 Z" />
</g>
<g id="#554897ba">
<path fill="#554897" opacity="0.73" d=" M 278.99 318.84 C 277.90 315.61 280.95 312.91 282.95 310.80 C 281.36 313.30 279.78 315.87 279.13 318.80 C 280.82 318.71 282.50 318.56 284.18 318.35 C 283.28 318.80 282.38 319.25 281.48 319.69 C 280.64 319.40 279.82 319.12 278.99 318.84 Z" />
</g>
<g id="#a285fdfe">
<path fill="#a285fd" opacity="1.00" d=" M 244.29 313.20 C 247.41 316.35 250.75 319.60 255.39 320.10 C 258.04 321.47 260.55 323.17 262.95 324.95 C 264.92 326.83 267.15 328.41 269.30 330.09 C 267.24 329.73 265.23 329.18 263.27 328.47 C 263.04 328.68 262.56 329.11 262.32 329.32 C 263.17 330.06 264.04 330.79 264.90 331.53 C 262.35 331.91 259.82 332.45 257.24 332.49 C 257.94 333.04 258.63 333.59 259.33 334.16 C 258.51 336.28 257.92 338.47 257.49 340.70 C 258.54 341.51 259.59 342.32 260.60 343.19 C 260.55 343.66 260.46 344.61 260.41 345.08 C 254.31 341.87 248.28 338.29 243.07 333.74 C 242.24 331.39 241.77 328.94 241.37 326.49 C 240.17 326.40 238.96 326.32 237.76 326.24 C 237.16 325.57 236.56 324.92 235.96 324.26 C 237.28 324.39 238.60 324.52 239.92 324.67 C 238.61 323.56 237.31 322.44 236.03 321.31 C 237.39 320.90 238.76 320.49 240.12 320.09 C 240.37 320.60 240.86 321.62 241.11 322.13 C 241.47 318.94 242.47 315.86 244.29 313.20 Z" />
</g>
<g id="#8e81fcfe">
<path fill="#8e81fc" opacity="1.00" d=" M 262.95 324.95 C 288.29 339.51 319.73 339.69 347.14 331.30 C 347.59 331.26 348.50 331.17 348.95 331.13 C 349.74 331.21 351.32 331.37 352.11 331.45 C 348.46 333.33 344.43 334.19 340.59 335.57 C 337.76 336.17 338.07 340.05 335.57 341.07 C 334.18 341.52 332.70 341.31 331.28 341.32 C 332.39 343.01 333.28 344.83 334.02 346.72 C 332.36 346.99 329.60 345.40 328.76 347.39 C 328.95 349.48 328.88 352.04 330.28 353.67 C 334.91 353.34 339.54 352.39 344.16 353.47 C 333.33 356.12 322.13 357.06 310.99 356.83 C 293.51 357.10 276.08 352.92 260.39 345.29 L 260.41 345.08 C 260.46 344.61 260.55 343.66 260.60 343.19 C 259.59 342.32 258.54 341.51 257.49 340.70 C 257.92 338.47 258.51 336.28 259.33 334.16 C 258.63 333.59 257.94 333.04 257.24 332.49 C 259.82 332.45 262.35 331.91 264.90 331.53 C 264.04 330.79 263.17 330.06 262.32 329.32 C 262.56 329.11 263.04 328.68 263.27 328.47 C 265.23 329.18 267.24 329.73 269.30 330.09 C 267.15 328.41 264.92 326.83 262.95 324.95 Z" />
</g>
<g id="#a785fdfe">
<path fill="#a785fd" opacity="1.00" d=" M 204.30 353.88 C 207.25 353.51 210.22 353.70 213.15 354.12 L 213.50 354.16 C 221.58 362.83 230.33 370.87 239.56 378.31 C 241.56 379.97 243.92 381.21 245.65 383.19 C 247.08 384.84 248.48 386.52 249.93 388.15 C 247.36 386.86 244.72 384.85 241.68 385.85 C 241.87 386.48 242.05 387.11 242.24 387.75 C 241.74 388.38 241.26 389.02 240.77 389.66 C 241.32 391.10 241.82 392.58 241.64 394.15 C 240.11 394.67 237.92 394.44 237.08 396.12 C 236.58 398.21 236.66 400.39 236.24 402.51 C 235.54 401.05 234.89 399.57 234.29 398.07 C 233.74 402.29 232.91 406.77 230.08 410.12 C 228.98 409.52 227.89 408.89 226.74 408.42 C 224.85 408.60 223.81 410.27 223.18 411.86 C 222.18 411.54 221.18 411.21 220.19 410.87 C 207.84 401.66 195.75 391.94 184.82 381.05 C 186.52 382.19 188.34 383.16 190.17 384.09 C 188.38 381.79 186.25 379.81 184.34 377.63 C 182.99 376.49 184.29 374.86 184.68 373.59 C 185.61 373.76 186.54 373.92 187.47 374.09 C 187.87 373.87 188.68 373.43 189.09 373.21 C 189.38 373.91 189.66 374.61 189.95 375.33 C 192.24 374.31 194.65 373.56 197.13 373.18 C 196.17 372.62 195.20 372.07 194.24 371.51 C 194.96 371.21 195.67 370.91 196.40 370.61 C 196.29 369.55 196.16 368.48 196.06 367.43 C 197.84 368.07 199.64 368.66 201.46 369.22 C 200.17 366.63 200.21 362.83 203.64 362.09 C 203.56 361.34 203.44 360.60 203.38 359.86 C 203.93 359.51 204.50 359.16 205.06 358.82 C 203.69 358.36 202.31 357.92 200.95 357.47 C 202.45 357.20 203.94 356.93 205.45 356.67 C 205.07 355.73 204.67 354.81 204.30 353.88 Z" />
</g>
<g id="#677ffcfe">
<path fill="#677ffc" opacity="1.00" d=" M 415.31 380.83 C 423.94 373.95 432.14 366.54 440.19 359.01 C 439.05 361.34 437.46 363.38 435.88 365.42 C 436.96 365.49 438.05 365.57 439.14 365.66 C 438.71 366.95 438.30 368.25 437.90 369.55 C 438.81 370.42 439.65 371.37 440.35 372.43 C 439.31 372.20 438.29 371.94 437.27 371.69 C 436.24 372.59 435.20 373.46 434.17 374.34 C 436.82 374.45 438.43 376.52 439.88 378.48 C 438.47 380.30 436.21 380.55 434.08 380.76 C 436.24 383.33 438.77 386.50 436.55 389.87 C 437.83 390.43 439.12 390.99 440.40 391.56 C 440.46 393.25 440.52 394.94 440.59 396.64 C 442.58 396.27 444.60 395.60 446.63 396.15 C 449.14 396.83 451.57 395.18 454.10 395.87 C 438.99 408.71 423.02 420.60 406.19 431.09 C 406.79 430.00 407.34 428.89 407.88 427.78 C 405.63 428.33 403.69 429.58 401.90 431.00 C 401.41 430.11 400.93 429.23 400.45 428.35 C 399.84 429.34 399.25 430.35 398.66 431.35 C 396.25 431.65 393.77 431.60 391.66 430.27 C 392.66 429.64 393.67 429.02 394.68 428.40 C 393.95 426.40 392.91 424.54 391.58 422.88 C 392.60 420.69 393.65 418.52 394.72 416.36 C 393.44 415.33 392.17 414.30 390.92 413.26 C 390.63 411.02 390.06 408.83 389.24 406.73 C 392.66 404.60 396.38 400.18 393.38 396.22 C 397.48 393.56 401.44 390.65 405.57 388.05 C 409.29 386.38 412.75 384.03 415.31 380.83 Z" />
</g>
<g id="#414fb1dd">
<path fill="#414fb1" opacity="0.87" d=" M 405.57 388.05 C 408.52 385.27 411.99 383.12 415.31 380.83 C 412.75 384.03 409.29 386.38 405.57 388.05 Z" />
</g>
<g id="#9983fdfe">
<path fill="#9983fd" opacity="1.00" d=" M 245.65 383.19 C 262.33 395.60 280.05 406.48 297.87 417.14 C 291.92 416.73 287.34 412.84 282.26 410.23 C 279.16 413.32 282.84 417.55 280.76 421.14 C 278.65 421.80 276.42 422.31 274.58 423.59 C 273.96 424.83 274.28 426.27 274.25 427.61 C 275.14 427.61 276.03 427.61 276.92 427.62 C 273.99 430.52 272.57 434.75 273.04 438.84 C 273.44 440.93 271.31 442.17 269.94 443.32 C 252.88 433.27 236.01 422.79 220.19 410.87 C 221.18 411.21 222.18 411.54 223.18 411.86 C 223.81 410.27 224.85 408.60 226.74 408.42 C 227.89 408.89 228.98 409.52 230.08 410.12 C 232.91 406.77 233.74 402.29 234.29 398.07 C 234.89 399.57 235.54 401.05 236.24 402.51 C 236.66 400.39 236.58 398.21 237.08 396.12 C 237.92 394.44 240.11 394.67 241.64 394.15 C 241.82 392.58 241.32 391.10 240.77 389.66 C 241.26 389.02 241.74 388.38 242.24 387.75 C 242.05 387.11 241.87 386.48 241.68 385.85 C 244.72 384.85 247.36 386.86 249.93 388.15 C 248.48 386.52 247.08 384.84 245.65 383.19 Z" />
</g>
<g id="#837ffcfe">
<path fill="#837ffc" opacity="1.00" d=" M 314.33 403.12 C 314.86 398.78 319.77 395.31 323.99 396.99 C 326.70 397.74 329.11 400.00 329.13 402.97 C 329.75 412.17 328.68 421.45 329.50 430.64 C 331.55 429.51 333.68 428.50 335.98 428.00 C 334.60 430.01 332.80 431.80 330.37 432.46 C 328.11 433.45 326.16 431.24 324.25 430.34 C 324.48 432.10 325.17 433.91 324.80 435.70 C 322.14 438.68 321.05 443.02 322.05 446.90 C 322.60 448.97 321.73 451.03 321.30 453.04 C 323.51 453.80 322.72 455.79 322.05 457.42 C 321.14 457.41 320.22 457.41 319.31 457.41 C 320.73 460.01 322.66 462.98 320.49 465.77 C 325.30 465.83 330.20 466.27 334.88 464.93 C 337.44 464.12 340.12 464.31 342.71 464.83 C 334.42 468.67 324.54 469.12 315.81 466.46 C 316.58 466.23 318.13 465.77 318.90 465.54 C 311.49 463.31 304.49 459.99 297.76 456.21 C 296.55 455.37 295.92 453.96 295.05 452.81 C 293.41 453.01 291.76 452.76 290.21 452.24 C 290.26 449.85 290.92 447.32 290.05 445.03 C 288.94 444.03 287.65 443.27 286.42 442.47 C 287.00 440.29 288.67 438.70 289.84 436.84 C 290.86 434.26 290.26 430.82 292.83 429.03 C 294.69 428.05 296.74 427.42 298.40 426.07 C 297.10 424.74 295.75 423.47 294.37 422.24 C 295.60 421.61 296.80 420.85 298.14 420.48 C 300.79 421.12 303.36 423.64 306.12 421.82 C 308.85 423.40 311.63 424.90 314.43 426.34 C 314.18 418.60 314.35 410.86 314.33 403.12 Z" />
</g>
<g id="#757dfbfe">
<path fill="#757dfb" opacity="1.00" d=" M 390.48 398.07 C 391.39 397.38 392.36 396.76 393.38 396.22 C 396.38 400.18 392.66 404.60 389.24 406.73 C 390.06 408.83 390.63 411.02 390.92 413.26 C 392.17 414.30 393.44 415.33 394.72 416.36 C 393.65 418.52 392.60 420.69 391.58 422.88 C 392.91 424.54 393.95 426.40 394.68 428.40 C 393.67 429.02 392.66 429.64 391.66 430.27 C 393.77 431.60 396.25 431.65 398.66 431.35 C 399.25 430.35 399.84 429.34 400.45 428.35 C 400.93 429.23 401.41 430.11 401.90 431.00 C 403.69 429.58 405.63 428.33 407.88 427.78 C 407.34 428.89 406.79 430.00 406.19 431.09 C 388.77 442.10 370.70 452.07 352.15 461.03 C 349.02 462.30 346.06 464.28 342.71 464.83 C 340.12 464.31 337.44 464.12 334.88 464.93 C 330.20 466.27 325.30 465.83 320.49 465.77 C 322.66 462.98 320.73 460.01 319.31 457.41 C 320.22 457.41 321.14 457.41 322.05 457.42 C 322.72 455.79 323.51 453.80 321.30 453.04 C 321.73 451.03 322.60 448.97 322.05 446.90 C 321.05 443.02 322.14 438.68 324.80 435.70 C 325.17 433.91 324.48 432.10 324.25 430.34 C 326.16 431.24 328.11 433.45 330.37 432.46 C 332.80 431.80 334.60 430.01 335.98 428.00 C 350.42 420.66 365.24 413.69 379.10 405.14 C 383.29 403.51 387.03 400.94 390.48 398.07 Z" />
</g>
<g id="#414aa4ca">
<path fill="#414aa4" opacity="0.79" d=" M 379.10 405.14 C 382.69 402.52 386.47 400.03 390.48 398.07 C 387.03 400.94 383.29 403.51 379.10 405.14 Z" />
</g>
<g id="#8d82fdfe">
<path fill="#8d82fd" opacity="1.00" d=" M 282.26 410.23 C 287.34 412.84 291.92 416.73 297.87 417.14 C 300.69 418.56 303.38 420.25 306.12 421.82 C 303.36 423.64 300.79 421.12 298.14 420.48 C 296.80 420.85 295.60 421.61 294.37 422.24 C 295.75 423.47 297.10 424.74 298.40 426.07 C 296.74 427.42 294.69 428.05 292.83 429.03 C 290.26 430.82 290.86 434.26 289.84 436.84 C 288.67 438.70 287.00 440.29 286.42 442.47 C 287.65 443.27 288.94 444.03 290.05 445.03 C 290.92 447.32 290.26 449.85 290.21 452.24 C 291.76 452.76 293.41 453.01 295.05 452.81 C 295.92 453.96 296.55 455.37 297.76 456.21 C 304.49 459.99 311.49 463.31 318.90 465.54 C 318.13 465.77 316.58 466.23 315.81 466.46 C 310.64 465.04 305.87 462.56 301.12 460.12 C 290.50 454.94 280.28 449.02 269.94 443.32 C 271.31 442.17 273.44 440.93 273.04 438.84 C 272.57 434.75 273.99 430.52 276.92 427.62 C 276.03 427.61 275.14 427.61 274.25 427.61 C 274.28 426.27 273.96 424.83 274.58 423.59 C 276.42 422.31 278.65 421.80 280.76 421.14 C 282.84 417.55 279.16 413.32 282.26 410.23 Z" />
</g>
<g id="#0f1235e7">
<path fill="#0f1235" opacity="0.91" d=" M 52.30 497.18 C 55.06 494.64 59.40 494.82 62.96 494.09 C 76.95 493.88 90.96 494.02 104.95 494.01 C 116.00 494.94 128.01 498.34 135.32 507.19 C 132.31 505.84 130.01 503.41 127.17 501.81 C 123.38 499.63 119.38 497.78 115.17 496.61 C 106.60 494.45 97.70 495.15 88.96 495.07 C 80.96 495.19 72.96 495.08 64.96 495.15 C 60.64 495.13 56.56 496.74 52.30 497.18 Z" />
</g>
<g id="#36408cfe">
<path fill="#36408c" opacity="1.00" d=" M 52.30 497.18 C 56.56 496.74 60.64 495.13 64.96 495.15 C 72.96 495.08 80.96 495.19 88.96 495.07 C 97.70 495.15 106.60 494.45 115.17 496.61 C 119.38 497.78 123.38 499.63 127.17 501.81 C 130.01 503.41 132.31 505.84 135.32 507.19 L 135.64 507.35 L 135.73 507.59 C 136.79 510.19 137.97 513.06 140.60 514.46 L 140.99 514.73 C 141.02 514.93 141.09 515.31 141.12 515.50 C 141.59 519.77 143.69 523.68 143.94 527.99 C 144.19 534.65 144.50 541.54 142.11 547.89 C 141.17 550.86 139.41 553.52 138.77 556.59 C 138.72 556.82 138.62 557.26 138.57 557.49 L 138.33 557.69 C 135.16 560.12 133.00 563.60 129.73 565.93 C 125.99 568.69 121.98 571.28 117.43 572.48 C 105.60 575.98 93.15 574.62 81.00 575.00 C 77.81 575.08 74.62 574.79 71.49 574.18 C 70.80 573.75 70.28 573.17 69.94 572.45 C 69.24 569.18 69.18 565.81 70.08 562.58 C 70.35 561.82 70.87 561.36 71.64 561.21 C 84.30 558.33 97.72 562.28 110.23 558.22 C 113.60 556.92 117.37 555.66 119.42 552.47 C 119.44 552.45 119.46 552.43 119.48 552.42 C 123.78 549.75 125.52 544.58 126.71 539.93 C 127.75 532.94 127.08 525.19 122.59 519.45 C 117.85 513.67 110.55 510.11 103.07 510.01 C 91.67 509.85 80.27 509.85 68.87 510.03 C 66.42 509.87 64.45 511.48 62.91 513.19 C 62.75 513.34 62.41 513.65 62.25 513.81 C 58.59 515.81 59.35 520.48 59.05 523.98 C 58.72 554.35 59.19 584.72 58.83 615.09 C 58.96 618.02 55.79 620.24 53.03 619.86 C 49.48 619.72 44.15 620.98 42.38 616.91 C 41.17 613.06 40.93 609.02 41.11 605.02 C 41.01 577.67 41.12 550.33 40.98 522.99 C 40.91 518.22 41.37 513.43 42.38 508.78 C 43.47 505.79 45.63 503.35 47.11 500.55 C 47.49 499.58 48.16 499.11 49.12 499.14 C 49.56 498.86 50.44 498.30 50.88 498.02 L 51.17 497.32 C 51.45 497.28 52.01 497.22 52.30 497.18 Z" />
<path fill="#36408c" opacity="1.00" d=" M 353.89 537.73 C 363.59 529.86 376.92 527.54 389.03 529.64 C 392.63 530.17 395.97 531.75 399.59 532.18 C 399.87 532.22 400.44 532.30 400.73 532.34 L 401.04 533.08 C 401.79 535.04 404.04 535.79 405.94 536.11 C 408.48 537.10 410.54 539.21 412.22 541.33 L 412.79 542.05 C 417.05 538.81 420.86 534.86 425.89 532.76 C 437.96 527.34 451.80 528.43 464.19 532.10 C 464.47 532.16 465.03 532.27 465.31 532.33 L 465.66 532.62 C 469.79 535.74 473.68 539.14 477.74 542.34 C 478.18 542.64 478.51 543.05 478.73 543.56 C 481.92 549.94 485.11 556.66 485.03 563.97 C 484.96 580.65 485.10 597.33 484.94 614.00 C 484.20 618.46 479.15 620.40 475.06 619.70 C 470.49 619.82 467.85 615.12 468.01 611.05 C 467.94 595.34 468.10 579.62 467.94 563.91 C 467.29 558.64 465.74 552.22 460.54 549.69 C 455.07 545.37 447.92 543.80 441.06 544.58 C 434.25 544.78 428.16 548.76 424.33 554.25 C 421.18 558.03 421.20 563.36 420.98 568.03 C 421.18 583.95 420.65 599.90 421.26 615.81 L 421.18 615.87 C 418.67 618.23 415.63 620.25 412.00 619.68 C 407.22 620.21 403.76 615.47 404.01 611.06 C 404.00 596.05 403.99 581.03 404.02 566.02 C 404.06 559.57 401.87 552.02 395.75 548.86 L 395.70 548.82 C 391.82 543.95 384.91 543.65 379.17 543.44 C 372.58 544.11 364.52 546.68 361.91 553.38 C 361.82 553.62 361.64 554.11 361.55 554.35 L 361.37 554.53 C 358.26 556.99 358.24 561.37 357.96 564.98 C 357.71 580.65 357.73 596.33 357.78 612.00 C 357.76 614.09 357.57 616.59 355.60 617.83 C 350.84 621.64 341.19 619.64 341.08 612.60 C 341.68 610.44 342.12 608.23 342.03 605.99 C 341.93 596.00 342.04 586.00 341.91 576.01 C 341.83 571.48 342.53 566.84 341.09 562.45 C 341.41 552.87 346.03 543.36 353.89 537.73 Z" />
<path fill="#36408c" opacity="1.00" d=" M 528.37 532.29 C 533.22 531.27 537.96 529.64 542.93 529.20 C 550.61 528.58 558.45 528.90 565.90 530.98 C 568.37 531.75 570.86 532.49 573.43 532.90 C 573.63 532.94 574.04 533.02 574.25 533.06 L 574.61 533.44 C 576.98 536.06 580.10 537.94 583.39 539.21 L 583.59 539.30 L 583.71 539.45 C 585.32 541.75 587.35 543.71 589.60 545.39 C 589.63 545.43 589.68 545.50 589.71 545.54 C 592.20 550.36 595.47 554.81 596.96 560.10 C 600.21 571.39 599.91 583.99 594.93 594.75 C 593.32 598.55 590.58 601.71 588.76 605.39 C 587.48 607.17 586.08 609.22 583.91 609.92 C 582.25 610.31 580.37 611.09 580.03 612.99 L 579.75 613.80 L 578.72 613.81 C 577.19 613.68 575.51 614.49 574.98 616.00 L 574.55 616.92 C 574.27 616.98 573.72 617.10 573.44 617.15 C 568.53 618.04 563.97 620.34 558.96 620.78 C 550.67 621.61 542.15 621.45 534.07 619.21 C 530.77 618.34 527.84 616.40 524.46 615.79 C 524.23 615.74 523.78 615.64 523.55 615.59 L 523.34 615.36 C 520.93 612.46 517.15 611.21 514.65 608.38 C 507.57 601.83 503.08 592.84 501.40 583.39 C 499.85 571.27 501.60 558.06 509.20 548.12 C 511.56 544.51 515.00 541.81 517.51 538.32 C 518.59 536.93 520.23 536.18 521.68 535.23 C 522.00 535.21 522.65 535.16 522.97 535.13 C 524.59 535.12 526.37 534.33 526.87 532.66 C 527.24 532.57 527.99 532.39 528.37 532.29 M 531.52 548.62 C 530.54 549.36 529.13 549.98 529.07 551.42 C 527.17 552.94 525.81 555.01 524.41 556.97 C 522.34 557.11 522.13 559.69 521.24 561.12 C 517.59 570.59 517.96 581.67 522.22 590.89 C 524.77 596.30 529.66 600.22 534.87 602.93 C 543.64 606.90 553.99 607.32 563.04 604.03 C 564.16 603.44 566.19 603.33 566.15 601.63 C 566.50 601.44 567.19 601.07 567.53 600.89 C 569.95 601.24 572.98 599.01 573.08 596.57 C 573.20 596.43 573.45 596.16 573.58 596.03 C 576.00 595.13 578.03 592.41 577.86 589.76 C 579.86 586.19 580.27 582.08 581.09 578.16 C 581.88 572.95 580.19 567.84 579.12 562.82 C 579.28 560.85 578.09 559.22 577.10 557.65 C 567.70 543.05 545.84 539.20 531.52 548.62 Z" />
</g>
<g id="#141436eb">
<path fill="#141436" opacity="0.92" d=" M 49.16 498.26 C 49.59 498.20 50.45 498.08 50.88 498.02 C 50.44 498.30 49.56 498.86 49.12 499.14 L 49.16 498.26 Z" />
</g>
<g id="#050819ef">
<path fill="#050819" opacity="0.94" d=" M 39.99 521.02 C 39.90 513.82 41.05 505.26 47.11 500.55 C 45.63 503.35 43.47 505.79 42.38 508.78 C 41.37 513.43 40.91 518.22 40.98 522.99 C 41.12 550.33 41.01 577.67 41.11 605.02 C 40.93 609.02 41.17 613.06 42.38 616.91 C 40.27 615.38 40.16 612.41 40.00 610.04 C 39.99 580.36 40.02 550.69 39.99 521.02 Z" />
</g>
<g id="#15193ff0">
<path fill="#15193f" opacity="0.94" d=" M 135.73 507.59 C 138.08 509.23 139.40 511.93 140.60 514.46 C 137.97 513.06 136.79 510.19 135.73 507.59 Z" />
</g>
<g id="#0e112fe5">
<path fill="#0e112f" opacity="0.90" d=" M 62.91 513.19 C 64.45 511.48 66.42 509.87 68.87 510.03 C 80.27 509.85 91.67 509.85 103.07 510.01 C 110.55 510.11 117.85 513.67 122.59 519.45 C 127.08 525.19 127.75 532.94 126.71 539.93 C 125.52 544.58 123.78 549.75 119.48 552.42 C 121.33 548.92 124.35 546.00 125.09 541.97 C 127.21 533.91 126.22 524.13 119.90 518.14 C 115.03 513.08 107.82 511.12 100.98 511.00 C 90.31 511.01 79.65 510.97 68.98 511.02 C 66.74 510.92 64.90 512.39 62.91 513.19 Z" />
</g>
<g id="#03091ced">
<path fill="#03091c" opacity="0.93" d=" M 59.05 523.98 C 59.35 520.48 58.59 515.81 62.25 513.81 C 61.43 515.82 59.90 517.68 60.02 519.96 C 59.82 551.51 60.31 583.09 59.78 614.62 L 58.83 615.09 C 59.19 584.72 58.72 554.35 59.05 523.98 Z" />
</g>
<g id="#111537e7">
<path fill="#111537" opacity="0.91" d=" M 141.12 515.50 C 145.96 523.35 145.46 533.12 144.79 541.97 C 143.51 547.01 142.64 552.88 138.77 556.59 C 139.41 553.52 141.17 550.86 142.11 547.89 C 144.50 541.54 144.19 534.65 143.94 527.99 C 143.69 523.68 141.59 519.77 141.12 515.50 Z" />
</g>
<g id="#121639db">
<path fill="#121639" opacity="0.86" d=" M 181.44 531.98 C 189.45 527.53 199.12 527.90 208.05 528.00 C 211.76 528.25 216.31 529.21 217.94 533.02 C 219.33 535.62 219.52 539.58 216.91 541.48 C 217.38 538.75 217.96 535.85 216.91 533.18 C 215.07 530.23 211.41 529.13 208.11 529.07 C 204.14 528.95 200.15 528.90 196.18 529.09 C 191.13 529.33 186.48 531.72 181.44 531.98 Z" />
</g>
<g id="#0b0f2ad1">
<path fill="#0b0f2a" opacity="0.82" d=" M 238.22 529.68 C 240.89 528.15 244.10 528.76 247.00 529.06 C 250.64 529.86 252.92 533.38 252.94 536.99 C 253.01 553.00 252.77 569.03 253.07 585.05 C 253.74 589.82 255.52 594.56 258.77 598.20 C 260.18 599.76 262.29 600.52 263.63 602.19 C 256.05 599.92 252.36 591.38 251.99 584.04 C 251.61 569.37 251.97 554.68 251.87 540.00 C 251.73 537.49 251.82 534.78 250.50 532.55 C 247.46 528.95 242.36 530.03 238.22 529.68 Z" />
</g>
<g id="#090c25cb">
<path fill="#090c25" opacity="0.80" d=" M 305.57 530.83 C 308.18 528.06 312.42 528.51 315.81 529.18 C 320.52 530.38 322.07 535.71 321.99 540.02 C 322.00 555.37 322.04 570.71 321.97 586.05 C 321.07 590.89 320.96 596.45 317.87 600.44 C 319.07 595.36 320.79 590.34 320.82 585.06 C 320.95 569.67 320.84 554.27 320.87 538.88 C 320.89 535.82 319.93 532.34 317.09 530.74 C 313.52 528.71 309.30 530.04 305.57 530.83 Z" />
</g>
<g id="#0e1232dc">
<path fill="#0e1232" opacity="0.86" d=" M 353.57 536.63 C 364.68 527.79 380.15 526.11 393.60 529.54 C 395.65 530.20 398.07 530.48 399.59 532.18 C 395.97 531.75 392.63 530.17 389.03 529.64 C 376.92 527.54 363.59 529.86 353.89 537.73 C 346.03 543.36 341.41 552.87 341.09 562.45 C 340.94 579.16 340.94 595.89 341.08 612.60 C 341.19 619.64 350.84 621.64 355.60 617.83 C 357.57 616.59 357.76 614.09 357.78 612.00 C 357.73 596.33 357.71 580.65 357.96 564.98 C 358.24 561.37 358.26 556.99 361.37 554.53 C 360.27 557.93 358.85 561.35 358.96 565.00 C 358.68 581.34 358.90 597.69 358.82 614.02 C 358.18 620.08 350.91 621.67 345.96 620.34 C 342.50 619.23 339.93 615.80 339.85 612.17 C 340.05 596.08 339.94 579.98 339.90 563.89 C 340.02 553.39 344.94 542.80 353.57 536.63 Z" />
</g>
<g id="#15183dde">
<path fill="#15183d" opacity="0.87" d=" M 421.79 533.78 C 430.43 528.37 441.06 527.24 451.01 528.25 C 455.43 529.21 460.54 529.21 464.19 532.10 C 451.80 528.43 437.96 527.34 425.89 532.76 C 420.86 534.86 417.05 538.81 412.79 542.05 L 412.22 541.33 C 415.31 538.69 418.24 535.81 421.79 533.78 Z" />
</g>
<g id="#101333e0">
<path fill="#101333" opacity="0.88" d=" M 528.97 531.34 C 537.91 528.01 547.58 527.38 557.02 528.19 C 562.58 529.24 568.60 529.67 573.43 532.90 C 570.86 532.49 568.37 531.75 565.90 530.98 C 558.45 528.90 550.61 528.58 542.93 529.20 C 537.96 529.64 533.22 531.27 528.37 532.29 L 528.97 531.34 Z" />
</g>
<g id="#36408dfe">
<path fill="#36408d" opacity="1.00" d=" M 196.18 529.09 C 200.15 528.90 204.14 528.95 208.11 529.07 C 211.41 529.13 215.07 530.23 216.91 533.18 C 217.96 535.85 217.38 538.75 216.91 541.48 C 216.25 542.94 214.77 543.72 213.59 544.71 C 208.05 544.93 202.52 544.23 196.99 544.73 C 192.65 545.08 188.93 547.52 185.35 549.78 C 180.98 551.75 179.29 556.77 178.17 561.07 C 177.31 573.70 177.86 586.38 177.67 599.04 C 177.53 605.19 178.25 611.42 176.90 617.49 C 176.79 617.65 176.57 617.95 176.45 618.11 C 172.56 619.94 167.65 620.90 163.86 618.29 C 161.68 617.08 160.89 614.56 160.61 612.25 C 160.94 596.08 160.99 579.88 160.57 563.71 C 161.01 558.26 162.12 552.76 164.81 547.95 C 166.37 545.05 168.84 542.74 170.12 539.69 L 170.26 539.40 L 170.64 539.23 C 174.28 537.69 177.60 535.33 180.32 532.47 L 180.72 532.06 C 180.90 532.04 181.26 532.00 181.44 531.98 C 186.48 531.72 191.13 529.33 196.18 529.09 Z" />
<path fill="#36408d" opacity="1.00" d=" M 238.22 529.68 C 242.36 530.03 247.46 528.95 250.50 532.55 C 251.82 534.78 251.73 537.49 251.87 540.00 C 251.97 554.68 251.61 569.37 251.99 584.04 C 252.36 591.38 256.05 599.92 263.63 602.19 C 263.79 602.25 264.12 602.36 264.29 602.42 C 269.01 606.61 276.04 606.19 281.97 606.12 C 287.52 605.61 294.26 603.94 297.13 598.69 L 297.33 598.33 L 297.97 598.01 C 299.24 597.55 300.44 596.39 300.25 594.94 C 300.26 594.63 300.29 594.01 300.30 593.69 L 300.72 593.22 C 303.37 590.61 303.40 586.55 303.59 583.09 C 303.65 568.07 303.53 553.04 303.64 538.02 C 303.64 535.82 304.07 533.67 304.73 531.59 C 304.94 531.40 305.36 531.02 305.57 530.83 C 309.30 530.04 313.52 528.71 317.09 530.74 C 319.93 532.34 320.89 535.82 320.87 538.88 C 320.84 554.27 320.95 569.67 320.82 585.06 C 320.79 590.34 319.07 595.36 317.87 600.44 C 317.81 600.77 317.68 601.44 317.62 601.77 L 316.92 602.06 C 316.64 602.50 316.09 603.38 315.81 603.81 C 315.70 604.05 315.48 604.53 315.37 604.77 C 312.17 607.40 309.15 610.30 306.60 613.56 C 306.53 613.63 306.39 613.78 306.32 613.86 C 301.47 615.84 297.01 618.85 291.79 619.83 C 280.28 622.23 267.86 621.76 256.93 617.17 C 253.29 615.73 250.19 613.29 246.64 611.69 C 245.31 610.84 244.16 609.71 243.29 608.42 C 242.10 605.87 240.84 603.23 238.47 601.57 L 238.32 601.45 C 238.30 601.22 238.24 600.77 238.21 600.55 C 237.48 595.61 234.85 591.06 234.99 585.96 C 234.92 569.30 234.88 552.64 234.99 535.98 C 234.91 533.82 236.43 532.12 237.41 530.35 C 237.61 530.18 238.02 529.85 238.22 529.68 Z" />
</g>
<g id="#11153bf0">
<path fill="#11153b" opacity="0.94" d=" M 233.93 535.97 C 233.69 533.60 235.14 531.14 237.41 530.35 C 236.43 532.12 234.91 533.82 234.99 535.98 C 234.88 552.64 234.92 569.30 234.99 585.96 C 234.85 591.06 237.48 595.61 238.21 600.55 C 236.59 599.39 236.36 597.19 235.69 595.45 C 232.95 587.26 234.00 578.53 233.72 570.06 C 233.83 558.70 233.55 547.33 233.93 535.97 Z" />
</g>
<g id="#0e112baa">
<path fill="#0e112b" opacity="0.67" d=" M 302.68 538.96 C 302.92 536.40 302.37 533.32 304.73 531.59 C 304.07 533.67 303.64 535.82 303.64 538.02 C 303.53 553.04 303.65 568.07 303.59 583.09 C 303.40 586.55 303.37 590.61 300.72 593.22 C 301.64 589.84 302.57 586.44 302.62 582.92 C 302.52 568.27 302.39 553.61 302.68 538.96 Z" />
</g>
<g id="#161a43ea">
<path fill="#161a43" opacity="0.92" d=" M 170.64 539.23 C 173.02 536.04 176.72 534.00 180.32 532.47 C 177.60 535.33 174.28 537.69 170.64 539.23 Z" />
</g>
<g id="#161a43de">
<path fill="#161a43" opacity="0.87" d=" M 401.04 533.08 C 402.71 532.66 405.76 534.42 405.94 536.11 C 404.04 535.79 401.79 535.04 401.04 533.08 Z" />
</g>
<g id="#161a41d7">
<path fill="#161a41" opacity="0.84" d=" M 465.66 532.62 C 469.21 533.49 471.95 536.07 474.64 538.41 C 475.79 539.59 477.36 540.61 477.74 542.34 C 473.68 539.14 469.79 535.74 465.66 532.62 Z" />
</g>
<g id="#0b112ada">
<path fill="#0b112a" opacity="0.85" d=" M 522.97 535.13 C 522.83 533.57 525.51 532.53 526.87 532.66 C 526.37 534.33 524.59 535.12 522.97 535.13 Z" />
</g>
<g id="#121739e1">
<path fill="#121739" opacity="0.88" d=" M 574.61 533.44 C 577.87 534.67 581.18 536.44 583.39 539.21 C 580.10 537.94 576.98 536.06 574.61 533.44 Z" />
</g>
<g id="#0f1331db">
<path fill="#0f1331" opacity="0.86" d=" M 506.72 549.70 C 509.66 545.40 512.78 540.78 517.51 538.32 C 515.00 541.81 511.56 544.51 509.20 548.12 C 501.60 558.06 499.85 571.27 501.40 583.39 C 503.08 592.84 507.57 601.83 514.65 608.38 C 517.15 611.21 520.93 612.46 523.34 615.36 C 518.34 613.75 514.54 609.75 510.98 606.05 C 505.19 599.89 501.69 591.90 500.40 583.59 C 498.98 572.05 500.13 559.61 506.72 549.70 Z" />
</g>
<g id="#0e122fc4">
<path fill="#0e122f" opacity="0.77" d=" M 159.13 568.07 C 159.52 557.84 161.91 546.54 170.12 539.69 C 168.84 542.74 166.37 545.05 164.81 547.95 C 162.12 552.76 161.01 558.26 160.57 563.71 C 159.65 573.43 160.35 583.22 160.17 592.97 C 160.36 599.39 159.76 605.86 160.61 612.25 C 160.89 614.56 161.68 617.08 163.86 618.29 C 167.65 620.90 172.56 619.94 176.45 618.11 C 172.02 622.72 161.85 621.64 160.02 614.90 C 159.46 612.97 159.15 610.97 159.14 608.97 C 159.05 595.33 159.12 581.70 159.13 568.07 Z" />
</g>
<g id="#0d0f27b8">
<path fill="#0d0f27" opacity="0.72" d=" M 583.71 539.45 C 586.17 540.78 588.44 542.80 589.60 545.39 C 587.35 543.71 585.32 541.75 583.71 539.45 Z" />
</g>
<g id="#171b41d5">
<path fill="#171b41" opacity="0.84" d=" M 361.91 553.38 C 364.52 546.68 372.58 544.11 379.17 543.44 C 384.91 543.65 391.82 543.95 395.70 548.82 C 388.04 544.07 378.14 543.16 369.87 546.86 C 366.62 548.20 364.50 551.14 361.91 553.38 Z" />
</g>
<g id="#14183bd0">
<path fill="#14183b" opacity="0.82" d=" M 531.52 548.62 C 545.84 539.20 567.70 543.05 577.10 557.65 C 578.09 559.22 579.28 560.85 579.12 562.82 C 576.71 559.86 575.40 556.09 572.53 553.46 C 561.05 542.48 541.56 541.61 529.07 551.42 C 529.13 549.98 530.54 549.36 531.52 548.62 Z" />
</g>
<g id="#0b102ee8">
<path fill="#0b102e" opacity="0.91" d=" M 478.73 543.56 C 480.66 544.96 481.58 547.26 482.60 549.34 C 484.71 554.26 486.24 559.57 486.04 564.98 C 486.05 581.34 486.15 597.70 485.98 614.05 C 484.67 622.15 471.31 623.27 468.07 615.99 C 466.62 612.86 467.04 609.34 466.99 606.00 C 466.99 592.32 467.03 578.63 466.97 564.95 C 467.11 559.20 464.10 553.98 460.54 549.69 C 465.74 552.22 467.29 558.64 467.94 563.91 C 468.10 579.62 467.94 595.34 468.01 611.05 C 467.85 615.12 470.49 619.82 475.06 619.70 C 479.15 620.40 484.20 618.46 484.94 614.00 C 485.10 597.33 484.96 580.65 485.03 563.97 C 485.11 556.66 481.92 549.94 478.73 543.56 Z" />
</g>
<g id="#101433de">
<path fill="#101433" opacity="0.87" d=" M 589.71 545.54 C 594.44 549.51 596.52 555.80 598.58 561.46 C 601.53 574.39 600.47 588.82 593.19 600.19 C 591.94 602.09 590.83 604.25 588.76 605.39 C 590.58 601.71 593.32 598.55 594.93 594.75 C 599.91 583.99 600.21 571.39 596.96 560.10 C 595.47 554.81 592.20 550.36 589.71 545.54 Z" />
</g>
<g id="#0d112fea">
<path fill="#0d112f" opacity="0.92" d=" M 395.75 548.86 C 401.87 552.02 404.06 559.57 404.02 566.02 C 403.99 581.03 404.00 596.05 404.01 611.06 C 403.76 615.47 407.22 620.21 412.00 619.68 C 415.63 620.25 418.67 618.23 421.18 615.87 C 420.32 620.38 414.74 620.81 411.01 620.61 C 406.13 620.58 402.70 615.60 402.99 611.02 C 402.98 595.66 403.04 580.30 402.97 564.94 C 402.92 558.83 399.94 553.15 395.75 548.86 Z" />
</g>
<g id="#18204ded">
<path fill="#18204d" opacity="0.93" d=" M 178.17 561.07 C 179.29 556.77 180.98 551.75 185.35 549.78 C 181.65 554.02 178.83 559.30 178.95 565.06 C 178.80 580.71 178.99 596.37 178.91 612.03 C 178.69 613.92 178.45 616.18 176.90 617.49 C 178.25 611.42 177.53 605.19 177.67 599.04 C 177.86 586.38 177.31 573.70 178.17 561.07 Z" />
</g>
<g id="#0d0f2cd0">
<path fill="#0d0f2c" opacity="0.82" d=" M 102.99 558.87 C 109.02 558.35 114.41 555.59 119.42 552.47 C 117.37 555.66 113.60 556.92 110.23 558.22 C 97.72 562.28 84.30 558.33 71.64 561.21 C 72.14 559.41 74.52 559.50 76.01 559.11 C 85.00 558.91 94.01 559.29 102.99 558.87 Z" />
</g>
<g id="#080d2cf6">
<path fill="#080d2c" opacity="0.96" d=" M 420.98 568.03 C 421.20 563.36 421.18 558.03 424.33 554.25 C 423.28 558.10 421.92 561.95 421.99 565.99 C 422.03 580.99 421.96 595.99 422.03 610.99 C 421.91 612.59 422.34 614.43 421.26 615.81 C 420.65 599.90 421.18 583.95 420.98 568.03 Z" />
</g>
<g id="#111537d2">
<path fill="#111537" opacity="0.82" d=" M 521.24 561.12 C 522.13 559.69 522.34 557.11 524.41 556.97 C 519.42 565.26 518.67 575.65 520.94 584.91 C 523.40 595.13 532.72 602.54 542.78 604.53 C 550.64 605.87 558.94 605.23 566.15 601.63 C 566.19 603.33 564.16 603.44 563.04 604.03 C 553.99 607.32 543.64 606.90 534.87 602.93 C 529.66 600.22 524.77 596.30 522.22 590.89 C 517.96 581.67 517.59 570.59 521.24 561.12 Z" />
</g>
<g id="#0d112ce3">
<path fill="#0d112c" opacity="0.89" d=" M 129.73 565.93 C 133.00 563.60 135.16 560.12 138.33 557.69 C 131.53 569.65 117.20 575.23 103.99 575.99 C 94.66 576.01 85.32 576.00 75.99 576.00 C 74.28 576.12 72.81 575.11 71.49 574.18 C 74.62 574.79 77.81 575.08 81.00 575.00 C 93.15 574.62 105.60 575.98 117.43 572.48 C 121.98 571.28 125.99 568.69 129.73 565.93 Z" />
</g>
<g id="#13183cde">
<path fill="#13183c" opacity="0.87" d=" M 69.94 572.45 C 66.88 570.15 67.53 564.96 70.08 562.58 C 69.18 565.81 69.24 569.18 69.94 572.45 Z" />
</g>
<g id="#4751acfb">
<path fill="#4751ac" opacity="1.00" d=" M 341.09 562.45 C 342.53 566.84 341.83 571.48 341.91 576.01 C 342.04 586.00 341.93 596.00 342.03 605.99 C 342.12 608.23 341.68 610.44 341.08 612.60 C 340.94 595.89 340.94 579.16 341.09 562.45 Z" />
</g>
<g id="#1c2357fc">
<path fill="#1c2357" opacity="1.00" d=" M 160.17 592.97 C 160.35 583.22 159.65 573.43 160.57 563.71 C 160.99 579.88 160.94 596.08 160.61 612.25 C 159.76 605.86 160.36 599.39 160.17 592.97 Z" />
</g>
<g id="#0f11254b">
<path fill="#0f1125" opacity="0.29" d=" M 339.07 568.03 C 339.32 566.68 338.63 564.82 339.90 563.89 C 339.94 579.98 340.05 596.08 339.85 612.17 C 339.23 610.87 339.35 609.42 339.30 608.04 C 338.86 594.71 338.99 581.36 339.07 568.03 Z" />
</g>
<g id="#111432d2">
<path fill="#111432" opacity="0.82" d=" M 573.58 596.03 C 575.01 593.94 576.46 591.87 577.86 589.76 C 578.03 592.41 576.00 595.13 573.58 596.03 Z" />
</g>
<g id="#0b0f2bce">
<path fill="#0b0f2b" opacity="0.81" d=" M 297.97 598.01 C 297.62 596.80 298.86 594.58 300.25 594.94 C 300.44 596.39 299.24 597.55 297.97 598.01 Z" />
</g>
<g id="#151a40f3">
<path fill="#151a40" opacity="0.95" d=" M 567.53 600.89 C 569.39 599.47 571.25 598.03 573.08 596.57 C 572.98 599.01 569.95 601.24 567.53 600.89 Z" />
</g>
<g id="#0f1335dd">
<path fill="#0f1335" opacity="0.87" d=" M 264.29 602.42 C 274.91 606.52 288.27 606.79 297.13 598.69 C 294.26 603.94 287.52 605.61 281.97 606.12 C 276.04 606.19 269.01 606.61 264.29 602.42 Z" />
</g>
<g id="#121634d9">
<path fill="#121634" opacity="0.85" d=" M 238.47 601.57 C 240.84 603.23 242.10 605.87 243.29 608.42 C 240.96 606.80 239.44 604.18 238.47 601.57 Z" />
</g>
<g id="#121735cd">
<path fill="#121735" opacity="0.80" d=" M 315.81 603.81 C 316.09 603.38 316.64 602.50 316.92 602.06 C 316.86 602.50 316.75 603.36 316.69 603.79 L 315.81 603.81 Z" />
</g>
<g id="#121634db">
<path fill="#121634" opacity="0.86" d=" M 306.60 613.56 C 309.15 610.30 312.17 607.40 315.37 604.77 C 313.45 608.45 310.42 611.86 306.60 613.56 Z" />
</g>
<g id="#161b40ef">
<path fill="#161b40" opacity="0.94" d=" M 580.03 612.99 C 580.37 611.09 582.25 610.31 583.91 609.92 C 584.05 611.40 581.54 613.56 580.03 612.99 Z" />
</g>
<g id="#0f122dc7">
<path fill="#0f122d" opacity="0.78" d=" M 246.64 611.69 C 250.19 613.29 253.29 615.73 256.93 617.17 C 267.86 621.76 280.28 622.23 291.79 619.83 C 297.01 618.85 301.47 615.84 306.32 613.86 C 303.08 617.21 298.38 618.73 294.05 620.20 C 286.62 622.72 278.68 622.26 270.97 621.96 C 264.89 621.00 258.76 619.65 253.37 616.55 C 251.03 615.11 248.16 614.10 246.64 611.69 Z" />
</g>
<g id="#161b40ea">
<path fill="#161b40" opacity="0.92" d=" M 574.98 616.00 C 575.51 614.49 577.19 613.68 578.72 613.81 C 578.96 615.28 576.25 616.54 574.98 616.00 Z" />
</g>
<g id="#0e1029bd">
<path fill="#0e1029" opacity="0.74" d=" M 524.46 615.79 C 527.84 616.40 530.77 618.34 534.07 619.21 C 542.15 621.45 550.67 621.61 558.96 620.78 C 563.97 620.34 568.53 618.04 573.44 617.15 C 569.21 620.07 563.91 620.67 559.02 621.83 C 547.56 622.86 535.42 622.24 525.10 616.63 L 524.46 615.79 Z" />
</g>
</svg>
