<?xml version="1.0" encoding="UTF-8" ?>
<!DOCTYPE svg PUBLIC "-//W3C//DTD SVG 1.1//EN" "http://www.w3.org/Graphics/SVG/1.1/DTD/svg11.dtd">
<svg width="410pt" height="453pt" viewBox="0 0 410 453" version="1.1" xmlns="http://www.w3.org/2000/svg">
<g id="#b58bfdfe">
<path fill="#b58bfd" opacity="1.00" d=" M 100.57 43.51 C 117.40 28.80 138.79 19.29 161.04 16.96 C 174.81 15.70 188.87 17.52 201.86 22.29 C 218.58 28.58 233.06 40.78 241.89 56.33 C 242.55 58.56 243.21 60.80 244.03 62.99 C 243.17 62.23 242.34 61.42 241.40 60.77 C 238.90 61.16 237.61 63.51 236.42 65.46 C 234.11 62.88 230.44 63.30 227.31 62.99 C 227.32 64.56 227.39 66.22 228.35 67.55 C 225.30 74.63 221.83 81.79 216.11 87.15 C 207.00 96.03 195.55 102.08 183.85 106.81 C 162.04 114.79 139.74 121.90 119.40 133.30 C 106.04 141.16 92.96 149.91 82.52 161.49 C 65.85 178.95 54.20 201.56 51.42 225.66 C 47.87 253.13 56.99 281.03 72.65 303.46 C 76.09 308.07 79.30 312.86 83.13 317.16 C 81.63 316.59 80.01 316.28 78.62 315.46 C 76.71 313.37 75.37 310.86 73.78 308.54 C 71.75 309.81 69.66 311.23 69.11 313.75 C 70.46 313.33 71.81 312.89 73.22 312.72 C 72.27 315.17 69.58 315.38 67.56 316.49 C 66.03 317.65 64.90 319.23 63.66 320.68 C 62.26 320.11 60.87 319.54 59.47 318.97 C 59.78 318.33 60.09 317.69 60.40 317.06 C 59.66 316.49 58.92 315.93 58.18 315.38 C 56.97 315.72 55.76 316.07 54.56 316.42 C 55.36 319.94 54.84 323.56 54.82 327.12 C 52.58 325.24 51.50 322.50 50.05 320.05 C 49.62 320.28 48.77 320.73 48.35 320.96 C 48.80 321.88 49.25 322.80 49.71 323.73 C 48.45 324.57 47.16 325.33 45.84 326.06 C 45.68 325.52 45.38 324.44 45.22 323.90 C 44.36 324.66 43.50 325.43 42.64 326.20 C 43.36 327.84 44.02 329.51 44.60 331.21 C 43.40 330.48 42.19 329.76 41.03 328.97 C 25.25 308.98 13.45 285.33 9.66 259.99 C 7.28 244.10 7.47 227.68 11.45 212.06 C 17.53 185.36 32.02 161.13 50.33 141.02 C 51.35 139.93 51.01 138.31 51.20 136.97 C 54.23 100.84 73.10 66.88 100.57 43.51 Z" />
</g>
<g id="#a688fcfd">
<path fill="#a688fc" opacity="1.00" d=" M 241.89 56.33 C 250.88 71.61 254.83 90.15 251.49 107.67 C 249.55 118.50 244.66 128.96 236.85 136.80 C 231.13 143.02 222.92 146.04 216.64 151.57 C 211.86 156.03 213.83 163.21 213.60 169.00 C 214.07 174.90 212.08 181.54 206.57 184.52 C 202.68 187.16 197.72 184.51 193.71 186.52 C 193.06 190.70 190.90 195.31 186.49 196.53 C 184.13 197.22 182.16 198.72 180.66 200.64 C 178.14 203.93 173.73 204.87 171.12 208.07 C 169.30 210.30 167.71 212.71 165.74 214.82 L 165.38 214.78 C 160.67 214.06 156.20 216.74 151.44 215.92 C 151.35 214.38 151.26 212.84 151.17 211.30 C 155.29 211.03 160.33 211.96 163.13 208.14 C 158.82 209.71 152.80 211.99 149.55 207.37 C 152.31 208.80 155.55 210.02 158.62 208.71 C 164.22 206.26 167.12 200.33 172.39 197.38 C 175.57 195.63 177.78 192.73 180.41 190.33 C 181.85 188.96 184.10 189.83 185.70 188.83 C 188.71 187.28 187.59 183.09 190.19 181.14 C 193.51 176.90 200.02 181.43 203.45 177.49 C 206.81 173.82 205.28 168.45 205.27 163.98 C 205.35 158.07 204.15 151.58 207.53 146.30 C 211.85 139.71 220.02 137.04 224.45 130.56 C 238.61 112.93 238.03 87.12 228.35 67.55 C 227.39 66.22 227.32 64.56 227.31 62.99 C 230.44 63.30 234.11 62.88 236.42 65.46 C 237.61 63.51 238.90 61.16 241.40 60.77 C 242.34 61.42 243.17 62.23 244.03 62.99 C 243.21 60.80 242.55 58.56 241.89 56.33 Z" />
</g>
<g id="#8d81fbfd">
<path fill="#8d81fb" opacity="1.00" d=" M 292.86 125.88 C 295.21 124.08 298.33 124.70 301.03 125.11 C 312.17 127.35 322.88 131.63 332.77 137.17 C 333.49 138.14 334.19 139.13 334.88 140.13 C 330.59 138.70 326.84 136.06 322.62 134.48 C 320.61 133.51 318.94 135.46 317.28 136.31 C 317.07 135.83 316.66 134.88 316.46 134.40 C 314.61 135.63 312.85 136.99 311.20 138.47 C 312.87 139.55 314.56 140.63 316.24 141.71 C 316.23 142.29 316.21 143.45 316.19 144.03 C 309.96 140.43 303.33 137.50 296.40 135.55 C 291.91 135.21 289.29 128.92 292.86 125.88 Z" />
</g>
<g id="#ac87fafc">
<path fill="#ac87fa" opacity="1.00" d=" M 177.23 132.24 C 177.76 132.24 178.81 132.24 179.34 132.24 C 181.18 135.95 183.87 139.60 187.85 141.18 C 190.92 142.70 194.41 142.67 197.70 143.39 C 198.29 144.64 198.63 145.97 198.73 147.35 C 190.30 151.75 178.70 146.98 175.77 137.91 C 174.98 135.83 176.33 134.00 177.23 132.24 Z" />
</g>
<g id="#827ffcfd">
<path fill="#827ffc" opacity="1.00" d=" M 311.20 138.47 C 312.85 136.99 314.61 135.63 316.46 134.40 C 316.66 134.88 317.07 135.83 317.28 136.31 C 318.94 135.46 320.61 133.51 322.62 134.48 C 326.84 136.06 330.59 138.70 334.88 140.13 C 334.19 139.13 333.49 138.14 332.77 137.17 C 340.21 141.19 347.29 145.95 353.72 151.45 C 352.59 152.90 351.14 151.98 349.86 151.39 C 348.88 153.77 346.03 153.07 344.06 152.71 C 343.77 154.62 343.49 156.53 343.19 158.44 C 341.55 159.46 340.24 160.88 339.44 162.66 C 332.75 155.24 324.68 149.24 316.19 144.03 C 316.21 143.45 316.23 142.29 316.24 141.71 C 314.56 140.63 312.87 139.55 311.20 138.47 Z" />
</g>
<g id="#7380fbfe">
<path fill="#7380fb" opacity="1.00" d=" M 349.86 151.39 C 351.14 151.98 352.59 152.90 353.72 151.45 C 372.83 166.91 387.17 188.35 393.57 212.12 C 393.05 213.35 392.51 214.57 391.94 215.79 C 391.32 213.94 390.78 212.06 390.31 210.17 C 389.23 212.58 388.59 215.78 385.82 216.83 C 383.35 217.88 381.02 219.23 378.65 220.48 C 377.15 220.24 375.77 219.54 374.36 219.01 C 375.12 220.32 375.89 221.64 376.66 222.96 C 373.17 222.85 370.20 224.63 367.43 226.53 C 367.15 231.79 367.72 237.11 366.64 242.30 C 364.55 234.21 367.95 225.39 364.67 217.53 C 361.69 197.38 353.48 177.61 339.44 162.66 C 340.24 160.88 341.55 159.46 343.19 158.44 C 343.49 156.53 343.77 154.62 344.06 152.71 C 346.03 153.07 348.88 153.77 349.86 151.39 Z" />
</g>
<g id="#8b82fcfd">
<path fill="#8b82fc" opacity="1.00" d=" M 231.01 185.38 C 241.17 179.15 253.59 178.07 265.16 179.78 C 276.25 181.91 286.57 187.63 294.12 196.05 C 290.65 195.61 287.54 194.00 284.93 191.71 C 283.40 192.00 281.86 192.26 280.32 192.52 C 280.33 193.95 280.35 195.39 280.36 196.82 C 278.99 197.44 277.62 198.06 276.25 198.68 C 280.66 200.01 281.41 204.82 284.37 207.74 C 286.26 210.00 286.43 213.12 287.33 215.82 C 286.82 215.61 285.80 215.19 285.30 214.98 C 281.90 206.33 274.82 199.15 266.07 195.94 C 255.28 191.55 242.82 193.01 232.46 197.86 C 229.46 197.70 226.73 198.89 224.31 200.55 C 224.16 199.44 224.01 198.33 223.86 197.23 C 223.48 197.61 222.72 198.38 222.34 198.76 C 221.97 197.91 221.61 197.06 221.25 196.22 C 224.60 192.23 230.16 190.90 232.92 186.29 C 232.45 186.06 231.49 185.61 231.01 185.38 Z" />
</g>
<g id="#9583fbfd">
<path fill="#9583fb" opacity="1.00" d=" M 224.68 189.83 C 226.61 188.11 228.73 186.59 231.01 185.38 C 231.49 185.61 232.45 186.06 232.92 186.29 C 230.16 190.90 224.60 192.23 221.25 196.22 C 221.61 197.06 221.97 197.91 222.34 198.76 C 222.72 198.38 223.48 197.61 223.86 197.23 C 224.01 198.33 224.16 199.44 224.31 200.55 C 226.73 198.89 229.46 197.70 232.46 197.86 C 229.76 200.04 226.70 201.76 224.27 204.28 C 219.79 208.45 217.06 214.09 215.01 219.77 C 213.56 224.45 213.77 229.49 212.09 234.13 C 210.10 236.88 205.82 237.04 204.45 240.38 C 202.07 246.42 203.43 253.54 207.43 258.59 C 210.99 264.45 217.95 267.12 224.53 267.57 C 229.63 268.71 236.87 270.27 237.65 276.51 C 229.70 276.33 221.93 274.17 213.99 273.74 C 198.33 273.46 182.08 276.02 168.53 284.32 C 166.06 286.00 163.66 287.78 161.13 289.37 C 159.45 289.57 157.78 289.74 156.10 289.85 C 156.83 286.92 158.28 284.26 159.96 281.78 C 169.65 270.70 184.89 267.11 199.00 266.25 C 200.28 265.93 202.59 266.79 203.00 264.98 C 201.82 262.37 199.73 260.22 198.97 257.41 C 197.39 251.05 197.20 244.38 198.98 238.03 C 200.18 233.82 204.85 232.26 207.15 228.90 C 208.02 225.29 206.94 221.54 207.95 217.94 C 209.76 206.84 216.56 197.30 224.68 189.83 Z" />
</g>
<g id="#b087fcfd">
<path fill="#b087fc" opacity="1.00" d=" M 107.51 193.36 C 113.02 188.68 121.36 186.18 128.02 189.93 C 135.82 194.95 141.82 202.25 149.55 207.37 C 152.80 211.99 158.82 209.71 163.13 208.14 C 160.33 211.96 155.29 211.03 151.17 211.30 C 151.26 212.84 151.35 214.38 151.44 215.92 C 156.20 216.74 160.67 214.06 165.38 214.78 C 161.94 217.57 157.35 218.82 152.98 217.96 C 144.09 217.01 137.88 210.00 131.37 204.64 C 128.20 201.87 123.31 199.35 119.36 202.10 C 113.17 206.59 109.43 213.78 107.70 221.11 C 103.81 235.15 105.67 250.34 111.13 263.71 C 114.36 271.59 119.62 278.44 125.31 284.70 C 127.63 286.88 130.19 288.78 132.37 291.11 C 128.10 290.06 123.67 288.12 121.40 284.13 C 119.57 286.59 118.20 289.45 118.58 292.60 C 116.68 292.36 114.79 292.15 112.88 292.02 C 113.83 293.95 115.98 294.31 117.86 294.80 C 117.82 295.03 117.75 295.48 117.71 295.70 C 116.17 295.55 114.62 295.40 113.07 295.25 C 113.60 295.91 114.12 296.58 114.64 297.26 C 115.87 297.30 117.09 297.34 118.32 297.39 C 118.82 299.86 119.33 302.34 120.09 304.75 C 110.16 296.79 101.66 286.84 95.90 275.46 C 93.60 268.90 90.91 262.49 89.04 255.78 C 83.38 233.71 90.35 208.58 107.51 193.36 Z" />
</g>
<g id="#7780fcfe">
<path fill="#7780fc" opacity="1.00" d=" M 280.32 192.52 C 281.86 192.26 283.40 192.00 284.93 191.71 C 287.54 194.00 290.65 195.61 294.12 196.05 C 305.04 208.14 309.73 225.03 307.85 241.09 C 306.08 258.29 297.69 274.35 285.77 286.71 C 270.79 303.31 251.14 315.76 229.67 322.01 C 227.20 321.47 224.79 320.68 222.40 319.88 C 221.89 316.17 224.44 313.35 226.93 310.99 C 227.52 311.89 228.11 312.79 228.71 313.69 C 229.55 311.65 230.40 309.61 231.25 307.57 C 231.68 307.84 232.55 308.37 232.98 308.63 C 232.68 307.47 232.82 306.02 231.84 305.18 C 230.19 304.43 228.37 304.20 226.61 303.89 C 227.72 303.34 228.81 302.76 229.91 302.18 C 229.74 301.91 229.40 301.36 229.24 301.09 L 228.95 300.61 C 243.85 295.38 257.44 286.75 268.85 275.87 C 275.44 268.49 281.93 260.63 285.27 251.17 C 289.49 239.62 289.69 226.52 285.30 214.98 C 285.80 215.19 286.82 215.61 287.33 215.82 C 286.43 213.12 286.26 210.00 284.37 207.74 C 281.41 204.82 280.66 200.01 276.25 198.68 C 277.62 198.06 278.99 197.44 280.36 196.82 C 280.35 195.39 280.33 193.95 280.32 192.52 Z" />
</g>
<g id="#5b81fbfe">
<path fill="#5b81fb" opacity="1.00" d=" M 390.31 210.17 C 390.78 212.06 391.32 213.94 391.94 215.79 C 392.51 214.57 393.05 213.35 393.57 212.12 C 398.40 230.90 398.67 250.92 393.97 269.74 C 392.28 274.49 391.14 279.41 390.05 284.33 C 379.37 317.10 356.91 344.76 331.02 366.93 C 327.68 366.69 324.40 367.69 321.04 367.27 C 318.84 368.29 317.79 370.93 316.11 372.64 C 314.49 371.33 314.10 369.41 314.15 367.44 C 313.56 367.01 312.97 366.58 312.39 366.15 C 312.88 364.70 313.12 363.21 312.61 361.73 C 312.87 360.91 313.14 360.10 313.42 359.30 C 312.89 358.80 312.37 358.31 311.85 357.82 C 311.91 356.28 311.98 354.74 312.04 353.21 C 311.24 352.37 310.44 351.53 309.65 350.70 C 311.74 350.38 313.85 350.41 315.94 350.68 C 314.35 349.36 312.64 348.11 311.49 346.37 C 311.73 344.68 313.52 343.55 313.43 341.76 C 313.49 339.77 313.45 337.78 313.63 335.81 C 315.14 335.28 316.65 334.75 318.17 334.21 C 318.77 332.52 319.24 330.75 320.17 329.20 C 321.97 327.51 324.29 326.55 326.41 325.34 C 326.60 324.24 326.80 323.14 327.00 322.05 C 325.09 323.66 323.02 325.05 320.83 326.22 C 329.55 316.62 337.91 306.60 344.70 295.51 C 359.36 272.55 367.86 244.89 364.67 217.53 C 367.95 225.39 364.55 234.21 366.64 242.30 C 367.72 237.11 367.15 231.79 367.43 226.53 C 370.20 224.63 373.17 222.85 376.66 222.96 C 375.89 221.64 375.12 220.32 374.36 219.01 C 375.77 219.54 377.15 220.24 378.65 220.48 C 381.02 219.23 383.35 217.88 385.82 216.83 C 388.59 215.78 389.23 212.58 390.31 210.17 Z" />
</g>
<g id="#4c438ebb">
<path fill="#4c438e" opacity="0.73" d=" M 212.09 234.13 C 213.77 229.49 213.56 224.45 215.01 219.77 C 215.03 224.63 214.60 229.85 212.09 234.13 Z" />
</g>
<g id="#54499ecd">
<path fill="#54499e" opacity="0.80" d=" M 198.97 257.41 C 196.05 251.47 195.98 243.96 198.98 238.03 C 197.20 244.38 197.39 251.05 198.97 257.41 Z" />
</g>
<g id="#7559b5d7">
<path fill="#7559b5" opacity="0.84" d=" M 89.04 255.78 C 90.91 262.49 93.60 268.90 95.90 275.46 C 92.53 269.39 89.92 262.68 89.04 255.78 Z" />
</g>
<g id="#374ca2d2">
<path fill="#374ca2" opacity="0.82" d=" M 390.05 284.33 C 391.14 279.41 392.28 274.49 393.97 269.74 C 393.48 274.75 392.11 279.74 390.05 284.33 Z" />
</g>
<g id="#554897ba">
<path fill="#554897" opacity="0.73" d=" M 155.94 289.84 C 155.01 286.56 157.95 283.93 159.96 281.78 C 158.28 284.26 156.83 286.92 156.10 289.85 C 157.78 289.74 159.45 289.57 161.13 289.37 C 160.25 289.81 159.38 290.25 158.50 290.68 C 157.65 290.39 156.79 290.11 155.94 289.84 Z" />
</g>
<g id="#a285fdfe">
<path fill="#a285fd" opacity="1.00" d=" M 118.58 292.60 C 118.20 289.45 119.57 286.59 121.40 284.13 C 123.67 288.12 128.10 290.06 132.37 291.11 C 135.04 292.43 137.54 294.16 139.93 295.94 C 141.96 297.79 144.16 299.44 146.36 301.09 C 143.93 300.55 141.51 299.93 139.05 299.60 C 139.97 300.59 140.91 301.57 141.86 302.54 C 139.29 302.90 136.73 303.32 134.16 303.63 C 134.94 304.24 135.72 304.86 136.50 305.49 C 135.38 307.39 134.78 309.52 134.43 311.70 C 135.53 312.50 136.63 313.31 137.69 314.17 C 137.59 314.65 137.41 315.61 137.32 316.09 C 131.30 312.78 125.25 309.31 120.09 304.75 C 119.33 302.34 118.82 299.86 118.32 297.39 C 117.09 297.34 115.87 297.30 114.64 297.26 C 114.12 296.58 113.60 295.91 113.07 295.25 C 114.62 295.40 116.17 295.55 117.71 295.70 C 117.75 295.48 117.82 295.03 117.86 294.80 C 115.98 294.31 113.83 293.95 112.88 292.02 C 114.79 292.15 116.68 292.36 118.58 292.60 Z" />
</g>
<g id="#8f81fcfe">
<path fill="#8f81fc" opacity="1.00" d=" M 139.93 295.94 C 163.87 309.73 193.42 310.62 219.64 303.58 C 222.85 302.80 225.93 301.42 229.24 301.09 C 229.40 301.36 229.74 301.91 229.91 302.18 C 228.81 302.76 227.72 303.34 226.61 303.89 C 221.88 304.91 217.25 306.30 212.58 307.53 C 210.58 307.85 209.28 309.48 207.61 310.44 C 204.88 311.50 201.83 311.56 199.20 312.92 C 198.52 315.43 198.56 318.07 198.38 320.65 C 195.79 321.67 193.40 323.18 191.97 325.64 C 194.90 325.81 198.03 325.63 200.55 327.43 C 178.96 329.37 156.78 325.94 137.28 316.26 L 137.32 316.09 C 137.41 315.61 137.59 314.65 137.69 314.17 C 136.63 313.31 135.53 312.50 134.43 311.70 C 134.78 309.52 135.38 307.39 136.50 305.49 C 135.72 304.86 134.94 304.24 134.16 303.63 C 136.73 303.32 139.29 302.90 141.86 302.54 C 140.91 301.57 139.97 300.59 139.05 299.60 C 141.51 299.93 143.93 300.55 146.36 301.09 C 144.16 299.44 141.96 297.79 139.93 295.94 Z" />
</g>
<g id="#807efbfe">
<path fill="#807efb" opacity="1.00" d=" M 212.58 307.53 C 217.25 306.30 221.88 304.91 226.61 303.89 C 228.37 304.20 230.19 304.43 231.84 305.18 C 232.82 306.02 232.68 307.47 232.98 308.63 C 232.55 308.37 231.68 307.84 231.25 307.57 C 230.40 309.61 229.55 311.65 228.71 313.69 C 228.11 312.79 227.52 311.89 226.93 310.99 C 224.44 313.35 221.89 316.17 222.40 319.88 C 224.79 320.68 227.20 321.47 229.67 322.01 C 220.31 325.18 210.36 327.07 200.55 327.43 C 198.03 325.63 194.90 325.81 191.97 325.64 C 193.40 323.18 195.79 321.67 198.38 320.65 C 198.56 318.07 198.52 315.43 199.20 312.92 C 201.83 311.56 204.88 311.50 207.61 310.44 C 209.28 309.48 210.58 307.85 212.58 307.53 Z" />
</g>
<g id="#a986fdfe">
<path fill="#a986fd" opacity="1.00" d=" M 69.11 313.75 C 69.66 311.23 71.75 309.81 73.78 308.54 C 75.37 310.86 76.71 313.37 78.62 315.46 C 80.01 316.28 81.63 316.59 83.13 317.16 C 96.40 332.54 111.69 346.08 128.03 358.12 C 124.78 357.19 121.39 356.30 118.01 357.02 C 119.17 357.89 120.35 358.74 121.52 359.60 C 119.41 362.47 124.69 365.21 121.55 367.66 C 120.20 367.82 119.01 366.90 117.76 366.51 C 117.92 368.81 118.39 371.10 120.33 372.57 C 119.43 373.32 118.52 374.07 117.62 374.83 C 117.50 375.82 117.37 376.82 117.25 377.82 C 116.27 377.38 115.29 376.94 114.32 376.51 C 113.74 377.08 113.17 377.64 112.60 378.22 C 112.99 378.78 113.38 379.34 113.78 379.91 C 112.69 380.69 110.98 381.13 110.76 382.65 C 110.79 384.62 111.06 386.59 110.93 388.57 C 112.54 390.04 113.78 391.85 114.58 393.90 C 102.23 386.44 91.03 377.25 79.78 368.26 C 65.57 356.53 52.40 343.50 41.03 328.97 C 42.19 329.76 43.40 330.48 44.60 331.21 C 44.02 329.51 43.36 327.84 42.64 326.20 C 43.50 325.43 44.36 324.66 45.22 323.90 C 45.38 324.44 45.68 325.52 45.84 326.06 C 47.16 325.33 48.45 324.57 49.71 323.73 C 49.25 322.80 48.80 321.88 48.35 320.96 C 48.77 320.73 49.62 320.28 50.05 320.05 C 51.50 322.50 52.58 325.24 54.82 327.12 C 54.84 323.56 55.36 319.94 54.56 316.42 C 55.76 316.07 56.97 315.72 58.18 315.38 C 58.92 315.93 59.66 316.49 60.40 317.06 C 60.09 317.69 59.78 318.33 59.47 318.97 C 60.87 319.54 62.26 320.11 63.66 320.68 C 64.90 319.23 66.03 317.65 67.56 316.49 C 69.58 315.38 72.27 315.17 73.22 312.72 C 71.81 312.89 70.46 313.33 69.11 313.75 Z" />
</g>
<g id="#6b7efcfe">
<path fill="#6b7efc" opacity="1.00" d=" M 320.83 326.22 C 323.02 325.05 325.09 323.66 327.00 322.05 C 326.80 323.14 326.60 324.24 326.41 325.34 C 324.29 326.55 321.97 327.51 320.17 329.20 C 319.24 330.75 318.77 332.52 318.17 334.21 C 316.65 334.75 315.14 335.28 313.63 335.81 C 313.45 337.78 313.49 339.77 313.43 341.76 C 313.52 343.55 311.73 344.68 311.49 346.37 C 312.64 348.11 314.35 349.36 315.94 350.68 C 313.85 350.41 311.74 350.38 309.65 350.70 C 310.44 351.53 311.24 352.37 312.04 353.21 C 311.98 354.74 311.91 356.28 311.85 357.82 C 312.37 358.31 312.89 358.80 313.42 359.30 C 313.14 360.10 312.87 360.91 312.61 361.73 C 313.12 363.21 312.88 364.70 312.39 366.15 C 312.97 366.58 313.56 367.01 314.15 367.44 C 314.10 369.41 314.49 371.33 316.11 372.64 C 317.79 370.93 318.84 368.29 321.04 367.27 C 324.40 367.69 327.68 366.69 331.02 366.93 C 305.43 388.95 276.83 407.26 247.02 423.02 C 245.72 423.66 244.46 424.42 243.07 424.86 C 241.08 425.03 239.10 425.15 237.11 425.29 C 236.76 424.66 236.41 424.03 236.06 423.41 C 237.01 423.39 237.95 423.38 238.90 423.38 C 239.55 420.77 239.68 418.09 239.00 415.48 C 238.21 412.29 240.40 409.48 241.73 406.77 C 240.05 408.11 238.26 409.30 236.40 410.38 C 238.64 406.69 239.57 402.41 241.75 398.71 C 240.88 398.46 240.03 398.22 239.16 397.98 C 239.33 394.07 242.61 390.73 246.53 390.54 C 246.64 389.10 246.73 387.66 246.83 386.23 C 244.83 385.73 242.82 385.27 240.79 384.97 C 255.07 376.94 269.00 368.24 282.56 359.05 C 286.28 357.38 289.68 355.01 292.30 351.87 C 299.82 345.57 307.50 339.44 314.40 332.45 C 316.64 330.47 318.44 328.01 320.83 326.22 Z" />
</g>
<g id="#414fb1dd">
<path fill="#414fb1" opacity="0.87" d=" M 282.56 359.05 C 285.52 356.30 288.95 354.10 292.30 351.87 C 289.68 355.01 286.28 357.38 282.56 359.05 Z" />
</g>
<g id="#9583fdfe">
<path fill="#9583fd" opacity="1.00" d=" M 118.01 357.02 C 121.39 356.30 124.78 357.19 128.03 358.12 C 145.20 370.52 163.47 381.27 181.65 392.10 C 183.58 393.60 185.48 395.14 187.31 396.77 C 183.11 395.46 179.36 393.12 175.40 391.25 C 175.37 393.59 175.76 396.24 174.20 398.21 C 172.41 399.14 170.50 399.82 168.69 400.71 C 169.82 401.92 170.96 403.13 172.12 404.32 C 170.56 404.43 168.11 403.62 167.74 405.83 C 167.45 411.25 166.31 416.82 167.90 422.16 C 168.74 423.58 170.26 424.44 171.89 423.82 C 172.99 425.41 174.12 427.11 176.00 427.87 C 179.92 429.67 183.63 432.38 188.08 432.63 C 189.55 435.02 192.49 435.47 194.97 436.20 C 199.88 437.59 205.02 437.23 210.06 437.43 C 202.85 438.51 195.74 437.20 188.68 435.89 C 186.00 435.32 183.65 433.81 181.19 432.68 C 158.28 421.07 135.60 408.59 114.58 393.90 C 113.78 391.85 112.54 390.04 110.93 388.57 C 111.06 386.59 110.79 384.62 110.76 382.65 C 110.98 381.13 112.69 380.69 113.78 379.91 C 113.38 379.34 112.99 378.78 112.60 378.22 C 113.17 377.64 113.74 377.08 114.32 376.51 C 115.29 376.94 116.27 377.38 117.25 377.82 C 117.37 376.82 117.50 375.82 117.62 374.83 C 118.52 374.07 119.43 373.32 120.33 372.57 C 118.39 371.10 117.92 368.81 117.76 366.51 C 119.01 366.90 120.20 367.82 121.55 367.66 C 124.69 365.21 119.41 362.47 121.52 359.60 C 120.35 358.74 119.17 357.89 118.01 357.02 Z" />
</g>
<g id="#7e7efcfe">
<path fill="#7e7efc" opacity="1.00" d=" M 191.31 374.94 C 191.20 370.25 196.50 366.23 200.97 367.98 C 203.70 368.73 206.12 371.01 206.13 374.00 C 206.73 383.19 205.71 392.45 206.48 401.64 C 218.09 396.47 229.51 390.86 240.79 384.97 C 242.82 385.27 244.83 385.73 246.83 386.23 C 246.73 387.66 246.64 389.10 246.53 390.54 C 242.61 390.73 239.33 394.07 239.16 397.98 C 240.03 398.22 240.88 398.46 241.75 398.71 C 239.57 402.41 238.64 406.69 236.40 410.38 C 238.26 409.30 240.05 408.11 241.73 406.77 C 240.40 409.48 238.21 412.29 239.00 415.48 C 239.68 418.09 239.55 420.77 238.90 423.38 C 237.95 423.38 237.01 423.39 236.06 423.41 C 236.41 424.03 236.76 424.66 237.11 425.29 C 239.10 425.15 241.08 425.03 243.07 424.86 C 231.10 431.11 218.89 438.51 205.04 439.17 C 199.45 439.22 193.77 438.28 188.68 435.89 C 195.74 437.20 202.85 438.51 210.06 437.43 C 205.02 437.23 199.88 437.59 194.97 436.20 C 192.49 435.47 189.55 435.02 188.08 432.63 C 183.63 432.38 179.92 429.67 176.00 427.87 C 174.12 427.11 172.99 425.41 171.89 423.82 C 170.26 424.44 168.74 423.58 167.90 422.16 C 166.31 416.82 167.45 411.25 167.74 405.83 C 168.11 403.62 170.56 404.43 172.12 404.32 C 170.96 403.13 169.82 401.92 168.69 400.71 C 170.50 399.82 172.41 399.14 174.20 398.21 C 175.76 396.24 175.37 393.59 175.40 391.25 C 179.36 393.12 183.11 395.46 187.31 396.77 C 185.48 395.14 183.58 393.60 181.65 392.10 C 184.98 393.75 188.14 395.74 191.48 397.37 C 191.11 389.90 191.40 382.42 191.31 374.94 Z" />
</g>
</svg>
